<?xml version="1.0" standalone="no"?>
<!DOCTYPE svg PUBLIC "-//W3C//DTD SVG 20010904//EN"
 "http://www.w3.org/TR/2001/REC-SVG-20010904/DTD/svg10.dtd">
<svg version="1.0" xmlns="http://www.w3.org/2000/svg"
 width="1659.000000pt" height="1659.000000pt" viewBox="0 0 1659.000000 1659.000000"
 preserveAspectRatio="xMidYMid meet">
<metadata>
Created by potrace 1.14, written by Peter Selinger 2001-2017
</metadata>
<g transform="translate(0.000000,1659.000000) scale(0.100000,-0.100000)"
fill="#000000" stroke="none">
<path d="M8539 13376 c-2 -2 -40 -7 -84 -10 -44 -3 -91 -8 -105 -11 -13 -3
-42 -7 -65 -10 -238 -35 -530 -133 -775 -262 -500 -262 -893 -675 -1137 -1191
-51 -109 -155 -399 -166 -467 -3 -16 -12 -61 -20 -100 -8 -38 -18 -92 -22
-118 -3 -27 -8 -57 -10 -66 -17 -91 -26 -407 -14 -521 4 -36 10 -96 14 -135 4
-38 9 -73 11 -76 1 -3 6 -28 10 -55 3 -27 8 -52 10 -55 2 -3 6 -20 9 -38 l5
-32 -115 6 c-64 4 -124 8 -134 10 -9 2 -59 6 -111 10 -52 4 -98 8 -101 11 -3
2 -35 6 -70 9 -35 3 -86 9 -114 15 -27 5 -70 12 -95 15 -53 6 -96 13 -128 21
-13 2 -43 7 -65 10 -23 3 -73 13 -112 21 -38 8 -81 17 -95 19 -14 3 -62 14
-107 24 -46 11 -93 22 -105 24 -13 2 -68 16 -123 31 -773 203 -1490 523 -2155
960 -156 103 -443 305 -460 324 -3 3 -27 24 -55 45 -48 38 -208 170 -231 191
-6 6 -37 33 -69 60 -190 164 -511 485 -675 675 -31 36 -92 108 -133 157 l-35
42 -33 -62 c-18 -34 -40 -75 -49 -92 -94 -174 -209 -538 -235 -740 -2 -22 -7
-50 -9 -61 -17 -85 -25 -393 -13 -540 20 -243 94 -565 167 -729 5 -11 21 -49
36 -85 108 -265 317 -573 539 -794 112 -111 246 -225 337 -286 62 -41 58 -42
-122 -25 -77 8 -98 11 -210 31 -244 44 -468 121 -701 240 -37 19 -69 34 -71
34 -6 0 -1 -199 7 -265 3 -27 8 -70 11 -95 46 -413 227 -853 498 -1215 79
-105 299 -339 393 -418 245 -204 570 -384 873 -480 36 -11 70 -22 77 -23 6 -1
27 -7 45 -13 33 -10 79 -21 110 -25 41 -5 24 -15 -59 -34 -254 -58 -497 -77
-758 -58 -103 7 -132 10 -224 26 -30 6 -59 10 -64 10 -36 0 129 -371 254 -573
117 -189 329 -435 504 -588 134 -117 353 -262 522 -347 226 -113 532 -212 730
-237 13 -2 42 -6 65 -10 79 -12 93 -14 193 -20 55 -4 102 -9 103 -10 5 -5
-155 -123 -278 -206 -254 -173 -557 -341 -825 -456 -44 -19 -93 -41 -110 -48
-50 -22 -295 -111 -380 -138 -96 -31 -368 -105 -410 -113 -16 -3 -50 -10 -75
-15 -206 -47 -486 -88 -735 -106 -131 -9 -560 -10 -700 0 -104 7 -224 17 -235
20 -3 1 -6 -2 -8 -7 -2 -5 12 -18 32 -30 315 -189 369 -219 641 -354 356 -178
650 -297 1044 -423 213 -68 604 -167 806 -204 82 -15 216 -38 245 -42 19 -2
58 -8 85 -13 51 -9 95 -15 195 -26 30 -3 66 -7 80 -9 14 -2 63 -6 110 -10 47
-4 101 -9 120 -11 241 -23 816 -23 1130 1 25 2 81 6 125 9 44 3 91 8 105 10
14 3 57 8 95 11 39 3 97 10 130 15 33 5 80 12 105 15 342 41 908 176 1300 310
74 26 140 48 145 49 6 2 24 9 40 16 17 6 53 20 82 30 29 10 69 26 90 35 44 20
80 35 108 45 11 4 51 22 88 39 37 17 70 31 73 31 16 0 477 235 581 296 18 11
69 41 115 68 326 192 721 482 1047 770 110 97 395 376 493 483 29 32 55 51 67
50 11 0 19 -5 18 -11 -2 -8 130 -122 201 -174 13 -9 32 -24 43 -34 54 -45 105
-85 224 -175 l130 -98 -1 -55 c-1 -66 -13 -239 -19 -260 -2 -8 -6 -33 -10 -55
-3 -22 -13 -85 -21 -140 -10 -59 -14 -123 -10 -157 6 -60 36 -125 56 -120 6 1
9 -2 6 -7 -15 -23 47 -53 269 -131 44 -16 96 -35 115 -43 19 -8 45 -13 57 -12
12 1 20 -2 17 -7 -5 -8 52 -25 69 -20 4 1 7 -2 7 -8 0 -6 3 -9 8 -8 4 1 41 -9
82 -22 41 -13 80 -23 87 -23 7 0 13 -5 13 -10 0 -5 11 -7 25 -5 13 3 22 2 20
-2 -3 -4 13 -12 35 -18 29 -7 40 -7 40 2 0 6 5 3 11 -7 6 -10 15 -14 22 -10
18 11 38 12 31 2 -3 -5 -10 -6 -16 -3 -7 5 -8 2 -4 -5 5 -7 14 -10 22 -7 8 3
14 1 14 -4 0 -6 5 -10 11 -10 5 0 7 6 3 13 -6 8 -3 8 9 -1 9 -8 22 -10 28 -6
7 4 9 3 6 -3 -8 -13 108 -47 126 -37 6 4 9 3 4 -1 -10 -12 177 -67 235 -69 9
0 14 -4 12 -8 -8 -13 31 -9 45 5 10 10 11 9 6 -5 -5 -13 4 -19 42 -31 35 -10
52 -11 62 -3 11 8 13 8 7 -1 -4 -8 -1 -13 8 -14 18 -2 24 -3 46 -11 42 -15 94
-27 102 -22 4 3 8 0 8 -6 0 -6 4 -9 8 -6 4 2 14 1 22 -4 9 -5 20 -4 29 3 12 9
13 9 7 0 -7 -12 12 -19 38 -14 5 1 13 -4 17 -11 7 -10 9 -10 9 2 0 10 3 11 8
4 10 -15 129 -44 149 -37 10 4 14 2 10 -4 -5 -8 65 -30 123 -38 8 -1 22 -5 30
-9 8 -3 31 -7 50 -8 19 -2 41 -9 49 -16 12 -11 15 -11 22 0 6 8 9 9 9 2 0 -10
19 -17 93 -31 12 -2 16 1 12 9 -4 7 0 5 8 -5 8 -10 28 -20 43 -22 16 -2 66
-13 112 -24 57 -13 82 -15 82 -7 0 6 4 6 9 -3 12 -18 92 -32 109 -18 10 8 12
7 10 -3 -2 -9 12 -16 42 -21 25 -5 54 -10 65 -12 11 -3 27 -7 35 -9 8 -1 14 3
12 10 -1 8 2 11 8 7 6 -3 7 -11 4 -17 -5 -7 -1 -9 9 -5 9 3 18 1 20 -6 3 -9 9
-8 22 3 11 9 16 10 11 3 -7 -13 0 -15 52 -16 12 -1 22 -4 22 -8 0 -7 46 -15
138 -25 36 -5 52 -3 52 5 0 7 4 9 10 6 11 -7 65 19 90 44 22 19 60 87 67 116
2 11 5 25 6 30 2 6 5 15 8 20 5 8 49 135 54 155 1 3 4 12 8 20 10 28 66 204
92 295 39 134 85 294 100 350 8 28 26 93 40 145 15 52 28 102 30 110 3 8 13
47 24 85 52 190 241 903 245 925 2 14 5 25 6 25 1 0 3 8 5 17 2 9 21 90 43
180 94 378 179 737 198 838 3 14 20 95 39 180 33 151 49 234 99 510 24 128 29
158 41 248 3 20 7 46 10 57 2 11 7 43 10 70 4 28 11 68 15 90 8 36 33 187 46
275 3 19 12 76 21 125 19 112 19 115 38 255 22 169 25 182 46 218 25 44 24 64
-7 95 -24 25 -32 41 -33 78 -1 9 -31 52 -68 95 -38 44 -81 104 -96 135 -15 31
-44 71 -63 90 -56 54 -110 130 -135 189 -12 30 -40 82 -61 114 -21 33 -38 67
-39 75 -5 98 -23 153 -60 187 -23 21 -121 63 -170 73 -19 4 -41 11 -48 15 -20
13 -134 34 -156 29 -11 -2 -40 -8 -65 -13 -25 -5 -63 -14 -85 -21 -22 -7 -76
-13 -120 -13 -67 0 -97 6 -185 37 -58 20 -113 42 -122 47 -9 5 -32 12 -50 15
-18 3 -48 10 -65 16 -18 6 -54 9 -80 8 -42 -2 -93 3 -168 17 -11 2 -33 7 -50
9 -54 10 -65 16 -80 45 -21 40 -93 96 -140 109 -51 14 -149 14 -195 1 -19 -6
-64 -17 -100 -24 -63 -13 -130 -35 -140 -46 -3 -3 -32 -23 -65 -44 -33 -22
-77 -59 -99 -83 -21 -24 -57 -53 -80 -65 -22 -11 -47 -29 -54 -39 -7 -11 -26
-26 -42 -34 -36 -18 -110 -94 -132 -134 -9 -17 -28 -35 -42 -41 -30 -11 -46
-39 -46 -80 0 -17 -14 -66 -31 -108 -51 -126 -275 -721 -300 -797 -7 -22 -17
-46 -22 -52 -6 -8 -5 -19 3 -28 11 -13 10 -14 -4 -9 -19 7 -22 -15 -3 -36 10
-12 9 -12 -5 -1 -12 9 -18 10 -18 2 0 -6 -3 -11 -7 -11 -5 0 -9 23 -10 52 -1
28 -6 54 -10 57 -11 8 -8 39 11 116 24 95 47 193 60 260 9 44 18 89 20 100 3
11 9 40 15 65 5 25 13 68 17 95 3 28 7 52 9 55 2 3 6 29 10 59 4 30 9 63 11
75 5 26 14 95 28 211 4 28 8 64 11 80 2 17 7 68 10 115 4 47 8 96 10 109 10
62 19 361 18 598 l-2 261 72 53 c40 29 74 56 77 59 3 3 52 43 109 90 142 115
182 151 356 325 172 171 226 230 356 385 100 121 304 399 297 405 -3 3 -157
-57 -237 -92 -105 -47 -559 -184 -690 -209 -12 -3 -51 -11 -85 -19 -78 -18
-245 -46 -351 -60 -27 -4 -59 -9 -70 -11 -16 -4 -13 1 10 20 17 14 34 26 38
26 5 0 25 13 45 28 20 16 71 54 112 85 112 84 154 121 270 237 128 128 216
237 321 394 68 102 198 346 236 441 16 42 63 175 63 180 0 2 -37 -17 -82 -44
-190 -109 -501 -256 -683 -322 -44 -16 -89 -34 -100 -39 -80 -37 -537 -170
-665 -193 -102 -19 -89 -23 -165 50 -286 275 -578 459 -935 589 -156 57 -389
114 -535 130 -27 3 -61 8 -75 10 -30 6 -416 15 -421 10z m2511 -4864 c0 -5 -7
-9 -15 -9 -8 0 -12 4 -9 9 3 4 9 8 15 8 5 0 9 -4 9 -8z m0 -42 c0 -5 -5 -10
-11 -10 -5 0 -7 5 -4 10 3 6 8 10 11 10 2 0 4 -4 4 -10z m13 -55 c-3 -9 -8
-14 -10 -11 -3 3 -2 9 2 15 9 16 15 13 8 -4z m-54 -32 c2 -1 -5 -1 -16 0 -11
0 -20 7 -20 14 0 10 4 10 16 1 9 -7 18 -13 20 -15z m57 -18 c-1 -8 -5 -17 -8
-21 -5 -4 -4 16 1 34 3 9 9 -1 7 -13z m-81 -4 c3 -5 2 -12 -3 -15 -5 -3 -9 1
-9 9 0 17 3 19 12 6z m-25 -11 c0 -5 -5 -10 -11 -10 -5 0 -7 5 -4 10 3 6 8 10
11 10 2 0 4 -4 4 -10z m17 -37 c-14 -14 -19 -15 -29 -4 -11 10 -10 11 3 6 10
-4 20 -2 24 4 3 6 9 11 13 11 3 0 -1 -8 -11 -17z m33 -27 c0 -2 -8 -10 -17
-17 -16 -13 -17 -12 -4 4 13 16 21 21 21 13z m-40 -16 c0 -5 -2 -10 -4 -10 -3
0 -8 5 -11 10 -3 6 -1 10 4 10 6 0 11 -4 11 -10z m35 -39 c3 -5 2 -12 -3 -15
-5 -3 -9 1 -9 9 0 17 3 19 12 6z m-95 -61 c0 -5 -2 -10 -4 -10 -3 0 -8 5 -11
10 -3 6 -1 10 4 10 6 0 11 -4 11 -10z m-50 -197 c0 -2 -21 -66 -46 -141 -46
-137 -132 -420 -140 -457 -2 -11 -22 -81 -45 -155 -22 -74 -53 -180 -68 -235
-16 -55 -49 -170 -74 -255 -25 -85 -71 -247 -104 -360 l-58 -205 -50 -1 c-28
-1 -79 -10 -115 -21 -36 -11 -85 -24 -110 -28 -61 -11 -180 -13 -174 -3 3 4
-6 8 -20 8 -14 0 -26 4 -26 8 0 5 28 49 63 98 140 199 281 424 435 694 17 30
85 163 151 295 142 286 250 535 325 751 4 11 56 17 56 7z m-1010 -1887 c0 -2
-8 -10 -17 -17 -16 -13 -17 -12 -4 4 13 16 21 21 21 13z m80 -16 c0 -5 -4 -10
-10 -10 -5 0 -10 5 -10 10 0 6 5 10 10 10 6 0 10 -4 10 -10z m-140 -24 c0 -2
-8 -10 -17 -17 -16 -13 -17 -12 -4 4 13 16 21 21 21 13z m36 -22 c1 -9 0 -13
-4 -10 -3 4 -7 14 -8 22 -1 9 0 13 4 10 3 -4 7 -14 8 -22z m110 4 c12 -14 13
-18 3 -10 -9 6 -18 10 -21 7 -2 -3 -5 2 -5 10 0 19 0 19 23 -7z m52 -43 c-3
-3 -9 2 -12 12 -6 14 -5 15 5 6 7 -7 10 -15 7 -18z m-241 1 c0 -8 -6 -12 -15
-9 -11 5 -11 7 0 14 7 5 13 9 14 9 0 0 1 -6 1 -14z m100 0 c2 -2 -9 -3 -26 -2
-16 0 -27 4 -25 8 4 7 43 3 51 -6z m112 0 c9 -11 9 -16 -1 -22 -7 -4 -10 -4
-6 1 4 4 3 14 -3 22 -6 7 -9 13 -6 13 2 0 10 -6 16 -14z m-71 -9 c8 -10 6 -13
-11 -14 -12 0 -16 1 -9 4 6 3 10 9 6 14 -8 14 2 11 14 -4z m46 -5 c3 -5 -1 -9
-9 -9 -8 0 -12 4 -9 9 3 4 7 8 9 8 2 0 6 -4 9 -8z m77 -5 c-6 -8 -9 -16 -7
-18 3 -2 -9 -5 -26 -6 -20 0 -26 2 -17 7 7 5 16 7 20 4 4 -2 12 3 19 11 7 8
15 15 17 15 3 0 0 -6 -6 -13z m135 -2 c-1 -8 -5 -17 -8 -21 -5 -4 -4 16 1 34
3 9 9 -1 7 -13z m-357 -11 c4 3 12 -3 18 -13 9 -14 8 -18 -3 -18 -7 0 -10 5
-7 10 4 6 0 8 -8 5 -10 -4 -15 1 -16 16 0 11 1 15 4 8 3 -6 8 -10 12 -8z m275
-10 c3 -8 2 -12 -4 -9 -6 3 -10 10 -10 16 0 14 7 11 14 -7z m-174 -20 c-6 -6
-7 -14 -3 -17 3 -4 2 -7 -4 -7 -6 0 -13 8 -15 18 -4 12 1 18 13 18 12 0 15 -4
9 -12z m155 -4 c4 -6 10 -8 14 -6 4 3 8 -1 8 -9 0 -12 -4 -12 -21 2 -12 10
-23 19 -25 20 -2 2 1 3 7 3 6 0 14 -5 17 -10z m120 1 c3 -5 2 -12 -3 -15 -5
-3 -9 1 -9 9 0 17 3 19 12 6z m-395 -11 c0 -5 -4 -10 -10 -10 -5 0 -10 5 -10
10 0 6 5 10 10 10 6 0 10 -4 10 -10z m177 -12 c-3 -8 -6 -5 -6 6 -1 11 2 17 5
13 3 -3 4 -12 1 -19z m30 0 c-3 -8 -6 -5 -6 6 -1 11 2 17 5 13 3 -3 4 -12 1
-19z m139 -6 c-17 -16 -18 -16 -5 5 7 12 15 20 18 17 3 -2 -3 -12 -13 -22z
m-394 -11 c-5 -13 -3 -14 9 -4 13 10 16 10 16 -2 0 -8 -5 -11 -10 -8 -6 4 -8
0 -5 -9 4 -8 1 -15 -7 -15 -8 0 -11 7 -7 16 5 13 3 14 -9 4 -13 -10 -16 -10
-16 2 0 8 5 11 10 8 6 -4 8 0 5 9 -4 8 -1 15 7 15 8 0 11 -7 7 -16z m-68 -9
c3 -5 -1 -9 -9 -9 -8 0 -12 4 -9 9 3 4 7 8 9 8 2 0 6 -4 9 -8z m179 -7 c-3 -9
-8 -14 -10 -11 -3 3 -2 9 2 15 9 16 15 13 8 -4z m92 6 c-9 -8 -36 -10 -30 -2
2 4 11 8 20 8 8 0 13 -3 10 -6z m231 2 c-2 -3 -6 -3 -9 -1 -3 2 -15 -6 -28
-17 l-24 -20 18 21 c9 11 24 21 32 21 8 0 13 -2 11 -4z m-69 -18 c0 -8 -4 -12
-9 -9 -5 3 -6 10 -3 15 9 13 12 11 12 -6z m-440 -11 c-3 -3 -12 -4 -19 -1 -8
3 -5 6 6 6 11 1 17 -2 13 -5z m339 -13 c-6 -10 -43 -7 -55 4 -3 4 7 4 22 1 16
-3 27 0 27 6 0 6 3 9 6 5 3 -3 3 -10 0 -16z m183 6 c8 -10 7 -14 -2 -14 -8 0
-14 6 -14 14 0 7 1 13 2 13 2 0 8 -6 14 -13z m-479 -7 c0 -5 -4 -10 -10 -10
-5 0 -10 5 -10 10 0 6 5 10 10 10 6 0 10 -4 10 -10z m380 -3 c0 -5 -6 -7 -12
-4 -7 2 -21 0 -30 -5 -13 -6 -16 -5 -12 5 5 14 54 18 54 4z m58 -22 c-3 -3 -9
2 -12 12 -6 14 -5 15 5 6 7 -7 10 -15 7 -18z m-518 11 c0 -2 -7 -7 -16 -10 -8
-3 -12 -2 -9 4 6 10 25 14 25 6z m32 -18 c-2 -10 -6 -18 -7 -18 -1 0 -5 8 -7
18 -3 11 0 19 7 19 7 0 10 -8 7 -19z m130 4 c-3 -10 -1 -13 6 -8 7 4 12 5 12
2 0 -15 -20 -14 -29 2 -7 14 -6 19 4 19 7 0 11 -7 7 -15z m114 -6 c2 -14 -40
-16 -53 -2 -4 5 -2 6 5 2 7 -4 12 -2 12 6 0 9 3 9 10 -2 9 -14 15 -6 10 15 -1
6 2 6 6 2 4 -4 9 -13 10 -21z m222 -11 c-3 -3 -9 2 -12 12 -6 14 -5 15 5 6 7
-7 10 -15 7 -18z m-428 0 c0 -2 -6 -5 -13 -8 -8 -3 -14 1 -14 8 0 7 6 11 14 8
7 -3 13 -6 13 -8z m27 0 c0 -8 -4 -12 -9 -9 -5 3 -6 10 -3 15 9 13 12 11 12
-6z m240 1 c0 -8 -6 -12 -15 -8 -11 4 -13 1 -7 -8 6 -9 4 -11 -5 -5 -10 6 -9
11 5 22 23 16 22 16 22 -1z m-374 -26 c-6 -21 -25 -28 -20 -7 2 10 16 26 24
27 0 0 -1 -9 -4 -20z m153 -4 c-2 -14 0 -27 5 -30 5 -2 4 -3 -3 -2 -12 2 -13
12 -9 46 0 6 3 10 6 10 3 0 3 -11 1 -24z m81 12 c-2 -7 0 -21 5 -30 6 -13 5
-16 -5 -12 -14 5 -18 54 -4 54 5 0 7 -6 4 -12z m433 6 c0 -8 -19 -13 -24 -6
-3 5 1 9 9 9 8 0 15 -2 15 -3z m-595 -13 c3 -5 2 -12 -3 -15 -5 -3 -9 1 -9 9
0 17 3 19 12 6z m266 -33 c-10 -11 -11 -9 -5 6 5 12 4 17 -3 13 -5 -3 -10 1
-10 9 0 13 2 13 16 0 12 -13 13 -18 2 -28z m116 28 c0 -9 -6 -12 -16 -8 -13 5
-14 3 -4 -9 10 -13 10 -16 -1 -16 -23 0 -5 42 20 47 0 0 1 -6 1 -14z m30 -8
c-3 -8 -6 -5 -6 6 -1 11 2 17 5 13 3 -3 4 -12 1 -19z m50 7 c0 -8 -5 -11 -10
-8 -6 4 -8 0 -4 -10 4 -10 2 -14 -7 -11 -7 3 -13 11 -13 19 0 8 4 12 8 9 4 -2
10 0 14 6 9 14 12 13 12 -5z m-341 -51 c1 -9 0 -13 -4 -10 -3 4 -7 14 -8 22
-1 9 0 13 4 10 3 -4 7 -14 8 -22z m-79 10 c-2 -3 -17 -7 -33 -10 -17 -2 -24
-1 -17 4 13 8 58 14 50 6z m200 0 c-2 -3 -17 -7 -33 -10 -17 -2 -24 -1 -17 4
13 8 58 14 50 6z m81 -9 c3 -3 -4 -4 -16 -2 -12 2 -24 6 -28 10 -4 3 4 4 16 2
12 -2 25 -7 28 -10z m108 2 c4 -3 -4 -4 -16 -2 -30 6 -40 16 -12 12 12 -2 24
-6 28 -10z m-463 -24 c-4 -10 -2 -14 4 -10 5 3 10 0 10 -7 0 -11 -4 -12 -18
-3 -13 8 -15 15 -7 24 14 18 19 16 11 -4z m113 -18 c0 -14 -4 -25 -9 -25 -5 0
-7 6 -4 13 2 6 0 20 -5 29 -6 13 -5 16 5 12 7 -2 13 -16 13 -29z m80 13 c1 -8
-2 -22 -7 -29 -7 -10 -8 -6 -5 13 2 15 0 29 -5 32 -5 2 -4 3 2 2 7 -1 13 -9
15 -18z m120 -4 c1 -9 0 -13 -4 -10 -3 4 -7 14 -8 22 -1 9 0 13 4 10 3 -4 7
-14 8 -22z m86 19 c-6 -3 -10 -9 -7 -13 3 -5 -3 -13 -13 -19 -14 -7 -19 -6
-19 4 0 8 7 11 16 7 13 -5 14 -3 4 9 -10 12 -8 15 10 16 12 0 16 -1 9 -4z
m124 -21 c-17 -16 -18 -16 -5 5 7 12 15 20 18 17 3 -2 -3 -12 -13 -22z m87 3
c-7 -21 -12 -19 -10 4 0 11 5 18 9 15 4 -3 5 -11 1 -19z m-728 -5 c-3 -5 -14
-10 -23 -9 -14 0 -13 2 3 9 27 11 27 11 20 0z m52 -5 c5 -4 2 -5 -6 0 -11 6
-13 4 -8 -7 6 -17 -16 -19 -30 -3 -5 4 -2 5 6 0 11 -6 13 -4 8 7 -6 17 16 19
30 3z m340 -7 c2 -17 0 -19 -7 -8 -5 8 -6 18 -4 22 8 12 10 10 11 -14z m60 0
c-3 -8 -6 -5 -6 6 -1 11 2 17 5 13 3 -3 4 -12 1 -19z m220 -3 c0 -8 -4 -12 -9
-9 -5 3 -6 10 -3 15 9 13 12 11 12 -6z m-342 -14 c3 -5 2 -12 -3 -15 -5 -3 -9
1 -9 9 0 17 3 19 12 6z m42 -5 c0 -8 -6 -12 -15 -9 -11 5 -11 7 0 14 7 5 13 9
14 9 0 0 1 -6 1 -14z m233 7 c12 10 12 9 1 -5 -7 -9 -10 -21 -8 -25 3 -5 -3
-9 -13 -9 -15 0 -17 3 -7 15 10 12 9 14 -4 9 -9 -4 -16 -1 -16 7 0 10 5 11 17
5 11 -6 22 -5 30 3z m-413 -17 c4 -5 2 -6 -4 -2 -8 4 -13 2 -14 -6 0 -10 -2
-11 -6 0 -3 9 -9 10 -17 3 -9 -8 -13 -7 -13 3 0 14 41 16 54 2z m72 -4 c7 -14
6 -19 -4 -19 -7 0 -11 7 -7 15 4 11 1 13 -8 7 -9 -5 -11 -4 -6 3 10 16 14 15
25 -6z m225 10 c3 -5 -1 -9 -9 -9 -8 0 -12 4 -9 9 3 4 7 8 9 8 2 0 6 -4 9 -8z
m-473 -25 c-10 -9 -11 -8 -5 6 3 10 9 15 12 12 3 -3 0 -11 -7 -18z m382 10 c3
-8 -1 -14 -8 -14 -7 0 -11 6 -8 14 3 7 6 13 8 13 2 0 5 -6 8 -13z m-408 -15
c-3 -3 -11 0 -18 7 -9 10 -8 11 6 5 10 -3 15 -9 12 -12z m123 -6 c-2 -1 -10
-7 -19 -14 -13 -9 -16 -9 -16 3 0 8 5 11 10 8 7 -4 8 1 3 12 -5 15 -4 16 9 5
9 -7 14 -13 13 -14z m199 8 c-3 -3 -12 -4 -19 -1 -8 3 -5 6 6 6 11 1 17 -2 13
-5z m179 -13 c-6 -10 -43 -7 -55 4 -3 4 7 4 22 1 16 -3 27 0 27 6 0 6 3 9 6 5
3 -3 3 -10 0 -16z m156 4 c2 3 5 -2 5 -10 0 -19 0 -19 -23 7 -12 14 -13 18 -3
10 9 -6 18 -10 21 -7z m-692 1 c0 -2 -7 -7 -16 -10 -8 -3 -12 -2 -9 4 6 10 25
14 25 6z m400 -6 c0 -5 -4 -10 -10 -10 -5 0 -10 5 -10 10 0 6 5 10 10 10 6 0
10 -4 10 -10z m219 -5 c3 -4 -7 -4 -22 -1 -16 3 -27 0 -27 -6 0 -6 -3 -9 -6
-5 -3 3 -3 10 0 16 6 10 43 7 55 -4z m-459 -15 c-14 -9 -7 -14 13 -11 5 1 6
-3 2 -9 -5 -8 -11 -8 -21 1 -15 12 -10 29 9 29 7 0 6 -4 -3 -10z m193 -7 c-3
-7 -6 -13 -8 -13 -2 0 -5 6 -8 13 -3 8 1 14 8 14 7 0 11 -6 8 -14z m90 0 c-3
-7 -6 -13 -8 -13 -2 0 -5 6 -8 13 -3 8 1 14 8 14 7 0 11 -6 8 -14z m47 11 c0
-8 -19 -13 -24 -6 -3 5 1 9 9 9 8 0 15 -2 15 -3z m189 -28 c-3 -3 -11 5 -18
17 -13 21 -12 21 5 5 10 -10 16 -20 13 -22z m-589 9 c-14 -17 -30 -20 -30 -4
0 5 4 8 9 4 5 -3 12 -1 16 5 3 5 9 10 12 10 3 0 0 -7 -7 -15z m172 1 c7 4 8 2
4 -5 -9 -13 -26 -5 -25 12 0 9 2 8 6 -1 2 -6 10 -9 15 -6z m111 -1 c-3 -9 -8
-14 -10 -11 -3 3 -2 9 2 15 9 16 15 13 8 -4z m-48 -5 c-3 -5 -12 -10 -18 -10
-7 0 -6 4 3 10 19 12 23 12 15 0z m92 -4 c0 -8 -6 -12 -15 -8 -9 3 -13 1 -9
-5 3 -5 -1 -10 -10 -10 -12 0 -11 5 7 19 27 22 27 22 27 4z m80 0 c0 -8 -6
-12 -15 -9 -11 5 -11 7 0 14 7 5 13 9 14 9 0 0 1 -6 1 -14z m158 5 c3 -5 2
-12 -3 -15 -5 -3 -9 1 -9 9 0 17 3 19 12 6z m-420 -10 c3 -5 2 -12 -3 -15 -5
-3 -9 1 -9 9 0 17 3 19 12 6z m358 -4 c3 -8 -1 -14 -8 -14 -7 0 -11 6 -8 14 3
7 6 13 8 13 2 0 5 -6 8 -13z m-553 -7 c0 -5 -2 -10 -4 -10 -3 0 -8 5 -11 10
-3 6 -1 10 4 10 6 0 11 -4 11 -10z m397 -9 c0 -11 -5 -18 -9 -15 -4 3 -5 11
-1 19 7 21 12 19 10 -4z m79 -5 c-2 -14 0 -27 5 -30 5 -2 4 -3 -3 -2 -12 2
-13 12 -9 46 0 6 3 10 6 10 3 0 3 -11 1 -24z m224 18 c0 -8 -19 -13 -24 -6 -3
5 1 9 9 9 8 0 15 -2 15 -3z m-588 -16 c-14 -14 -44 -20 -36 -7 3 5 9 7 14 4 5
-3 11 -1 15 5 3 5 9 10 13 10 3 0 1 -5 -6 -12z m144 -7 c0 -12 -6 -17 -18 -13
-10 2 -18 9 -18 14 0 5 4 7 9 3 5 -3 12 -1 16 5 9 14 11 13 11 -9z m384 16 c0
-2 -8 -11 -18 -20 -15 -14 -19 -15 -19 -2 0 8 4 12 8 9 4 -2 10 0 14 6 6 10
15 14 15 7z m-490 -11 c0 -2 -8 -10 -17 -17 -16 -13 -17 -12 -4 4 13 16 21 21
21 13z m24 -12 c3 -8 2 -12 -4 -9 -6 3 -10 10 -10 16 0 14 7 11 14 -7z m165 1
c3 -4 -7 -4 -22 -1 -16 3 -27 0 -27 -6 0 -6 -3 -9 -6 -5 -3 3 -3 10 0 16 6 10
43 7 55 -4z m354 -10 c-3 -9 -8 -14 -10 -11 -3 3 -2 9 2 15 9 16 15 13 8 -4z
m-169 -10 c-4 -8 -11 -12 -16 -9 -6 4 -5 10 3 15 19 12 19 11 13 -6z m-66 -11
c27 -4 22 -12 -6 -11 -16 1 -29 7 -29 14 0 7 5 9 11 5 6 -3 17 -7 24 -8z
m-262 -27 c0 -13 -6 -24 -13 -24 -6 0 -9 5 -5 11 4 6 7 14 8 19 5 26 10 23 10
-6z m59 13 c4 -6 -1 -7 -11 -3 -10 4 -15 2 -11 -4 3 -5 0 -10 -8 -10 -11 0
-12 4 -4 14 14 15 26 17 34 3z m-85 -5 c0 -2 -6 -8 -13 -14 -10 -8 -14 -7 -14
2 0 8 6 14 14 14 7 0 13 -1 13 -2z m232 -17 c-2 -10 -9 -18 -15 -18 -6 0 -7 3
-4 7 4 3 3 11 -3 17 -6 8 -3 12 9 12 12 0 17 -6 13 -18z m122 14 c3 -5 -1 -9
-9 -9 -8 0 -12 4 -9 9 3 4 7 8 9 8 2 0 6 -4 9 -8z m136 4 c0 -3 -4 -8 -10 -11
-5 -3 -10 -1 -10 4 0 6 5 11 10 11 6 0 10 -2 10 -4z m-333 -12 c-3 -3 -12 -4
-19 -1 -8 3 -5 6 6 6 11 1 17 -2 13 -5z m245 -9 c2 3 5 -2 5 -10 0 -19 0 -19
-23 7 -12 14 -13 18 -3 10 9 -6 18 -10 21 -7z m-472 -5 c0 -5 -5 -10 -11 -10
-5 0 -7 5 -4 10 3 6 8 10 11 10 2 0 4 -4 4 -10z m177 -10 c-2 -11 -6 -22 -9
-26 -4 -3 -5 2 -3 13 2 10 4 21 4 26 1 4 3 7 6 7 3 0 4 -9 2 -20z m180 -2 c-3
-8 -6 -5 -6 6 -1 11 2 17 5 13 3 -3 4 -12 1 -19z m30 0 c-3 -8 -6 -5 -6 6 -1
11 2 17 5 13 3 -3 4 -12 1 -19z m-347 -2 c0 -3 -4 -8 -10 -11 -5 -3 -10 -1
-10 4 0 6 5 11 10 11 6 0 10 -2 10 -4z m187 -2 c-3 -3 -12 -4 -19 -1 -8 3 -5
6 6 6 11 1 17 -2 13 -5z m203 2 c0 -2 -8 -10 -17 -17 -16 -13 -17 -12 -4 4 13
16 21 21 21 13z m-349 -23 c13 -16 12 -17 -3 -4 -10 7 -18 15 -18 17 0 8 8 3
21 -13z m35 2 c-1 -8 -5 -17 -8 -21 -5 -4 -4 16 1 34 3 9 9 -1 7 -13z m104 -1
c0 -8 -19 -13 -24 -6 -3 5 1 9 9 9 8 0 15 -2 15 -3z m36 -6 c4 -7 4 -10 -1 -6
-4 4 -15 2 -24 -5 -14 -11 -14 -10 -2 6 16 20 18 21 27 5z m95 -11 c-10 -9
-11 -8 -5 6 3 10 9 15 12 12 3 -3 0 -11 -7 -18z m-70 -10 c-10 -9 -11 -8 -5 6
3 10 9 15 12 12 3 -3 0 -11 -7 -18z m139 5 c0 -5 -7 -9 -15 -9 -8 0 -12 4 -9
9 3 4 9 8 15 8 5 0 9 -4 9 -8z m-205 -11 c3 -5 2 -12 -3 -15 -5 -3 -9 1 -9 9
0 17 3 19 12 6z m162 -6 c0 -8 -3 -13 -5 -10 -3 3 -10 0 -17 -5 -8 -7 -12 -5
-12 5 0 8 4 12 8 9 4 -2 10 0 14 6 9 14 12 13 12 -5z m83 11 c0 -2 -8 -10 -17
-17 -16 -13 -17 -12 -4 4 13 16 21 21 21 13z m-143 -23 c0 -9 -4 -10 -14 -2
-7 6 -13 12 -13 14 0 1 6 2 13 2 8 0 14 -6 14 -14z m188 -53 c3 -6 -1 -7 -9
-4 -18 7 -21 14 -7 14 6 0 13 -4 16 -10z m349 -589 c-2 -3 -12 3 -22 13 -16
17 -16 18 5 5 12 -7 20 -15 17 -18z m-130 -9 c3 -5 -1 -9 -9 -9 -8 0 -12 4 -9
9 3 4 7 8 9 8 2 0 6 -4 9 -8z m-103 -19 c13 -16 12 -17 -3 -4 -10 7 -18 15
-18 17 0 8 8 3 21 -13z m173 -1 c3 -5 -1 -9 -9 -9 -8 0 -12 4 -9 9 3 4 7 8 9
8 2 0 6 -4 9 -8z m-239 -22 c3 -5 1 -10 -4 -10 -6 0 -11 5 -11 10 0 6 2 10 4
10 3 0 8 -4 11 -10z m211 -38 c-17 -16 -18 -16 -5 5 7 12 15 20 18 17 3 -2 -3
-12 -13 -22z m68 20 c3 -5 -1 -9 -9 -9 -8 0 -12 4 -9 9 3 4 7 8 9 8 2 0 6 -4
9 -8z m-129 -22 c3 -6 -1 -7 -9 -4 -18 7 -21 14 -7 14 6 0 13 -4 16 -10z m131
-15 c-1 -8 -5 -17 -8 -21 -5 -4 -4 16 1 34 3 9 9 -1 7 -13z m-303 -13 c15 -16
15 -19 2 -19 -8 0 -13 3 -10 5 3 3 0 11 -6 19 -17 20 -5 16 14 -5z m64 3 c0
-8 -4 -12 -9 -9 -5 3 -6 10 -3 15 9 13 12 11 12 -6z m380 -12 c-4 -3 1 -16 10
-27 18 -21 18 -21 -4 -2 -25 21 -30 36 -11 36 6 0 8 -3 5 -7z m103 -3 c0 -5
-5 -10 -11 -10 -5 0 -7 5 -4 10 3 6 8 10 11 10 2 0 4 -4 4 -10z m-453 -22 c-3
-8 -6 -5 -6 6 -1 11 2 17 5 13 3 -3 4 -12 1 -19z m50 8 c0 -8 -8 -11 -21 -8
-19 5 -19 6 0 13 10 4 19 8 20 8 0 1 1 -5 1 -13z m30 -8 c-3 -8 -6 -5 -6 6 -1
11 2 17 5 13 3 -3 4 -12 1 -19z m188 12 c3 -6 -1 -7 -9 -4 -18 7 -21 14 -7 14
6 0 13 -4 16 -10z m22 -12 c-3 -8 -6 -5 -6 6 -1 11 2 17 5 13 3 -3 4 -12 1
-19z m-463 -4 c3 -8 2 -12 -4 -9 -6 3 -10 10 -10 16 0 14 7 11 14 -7z m321 4
c4 -4 -1 -5 -12 -4 -10 2 -23 0 -29 -5 -6 -5 -11 -4 -11 5 0 13 40 16 52 4z
m405 8 c0 -3 -4 -8 -10 -11 -5 -3 -10 -1 -10 4 0 6 5 11 10 11 6 0 10 -2 10
-4z m45 -6 c-3 -5 -12 -10 -18 -10 -7 0 -6 4 3 10 19 12 23 12 15 0z m-675
-14 c0 -2 -8 -10 -17 -17 -16 -13 -17 -12 -4 4 13 16 21 21 21 13z m115 -6 c3
-6 -1 -7 -9 -4 -18 7 -21 14 -7 14 6 0 13 -4 16 -10z m242 -5 c4 -4 3 -5 -4
-2 -6 4 -13 2 -15 -5 -3 -8 -6 -6 -10 4 -7 17 15 19 29 3z m153 7 c0 -5 -7 -9
-15 -9 -8 0 -12 4 -9 9 3 4 9 8 15 8 5 0 9 -4 9 -8z m35 -1 c3 -5 2 -12 -3
-15 -5 -3 -9 1 -9 9 0 17 3 19 12 6z m165 -1 c0 -5 -5 -10 -11 -10 -5 0 -7 5
-4 10 3 6 8 10 11 10 2 0 4 -4 4 -10z m-463 -19 c-1 -16 -4 -18 -16 -8 -12 10
-14 9 -9 -4 4 -9 1 -16 -7 -16 -10 0 -11 5 -4 19 6 10 14 16 20 13 5 -4 9 -1
9 4 0 6 2 11 4 11 3 0 4 -9 3 -19z m-297 -6 c-5 -7 -9 -14 -7 -16 1 -2 0 -3
-2 -1 -11 7 -7 29 5 29 9 0 11 -4 4 -12z m159 0 c3 -3 -7 -4 -23 -1 -16 3 -31
8 -35 11 -3 3 7 4 23 1 16 -3 31 -8 35 -11z m41 11 c0 -2 -7 -7 -16 -10 -8 -3
-12 -2 -9 4 6 10 25 14 25 6z m244 -8 c-3 -4 -9 -8 -15 -8 -5 0 -9 4 -9 8 0 5
7 9 15 9 8 0 12 -4 9 -9z m-504 -18 c0 -5 -2 -10 -4 -10 -3 0 -8 5 -11 10 -3
6 -1 10 4 10 6 0 11 -4 11 -10z m176 -12 c1 -8 -2 -22 -7 -29 -7 -10 -8 -6 -5
13 2 15 0 29 -5 32 -5 2 -4 3 2 2 7 -1 13 -9 15 -18z m87 16 c-6 -3 -10 -17
-7 -32 3 -19 2 -23 -5 -13 -7 11 -8 29 -2 49 1 1 7 2 14 1 9 0 9 -2 0 -5z
m277 0 c0 -8 -19 -13 -24 -6 -3 5 1 9 9 9 8 0 15 -2 15 -3z m280 2 c0 -2 -7
-7 -16 -10 -8 -3 -12 -2 -9 4 6 10 25 14 25 6z m-447 -21 c-3 -9 -8 -14 -10
-11 -3 3 -2 9 2 15 9 16 15 13 8 -4z m67 -8 c0 -5 -6 -7 -12 -4 -7 2 -21 0
-30 -5 -13 -6 -16 -5 -12 5 5 14 54 18 54 4z m135 1 c4 -4 -1 -5 -12 -4 -10 2
-27 0 -39 -5 -13 -5 -21 -3 -21 4 0 12 61 16 72 5z m256 -5 c13 -16 12 -17 -3
-4 -10 7 -18 15 -18 17 0 8 8 3 21 -13z m143 1 c3 -8 2 -12 -4 -9 -6 3 -10 10
-10 16 0 14 7 11 14 -7z m-999 -3 c3 -5 2 -12 -3 -15 -5 -3 -9 1 -9 9 0 17 3
19 12 6z m127 -23 c-7 -27 -17 -29 -17 -4 0 13 5 23 11 23 6 0 9 -9 6 -19z
m638 13 c0 -5 -8 -15 -17 -22 -16 -12 -17 -12 -6 2 7 9 10 19 6 22 -3 4 -1 7
5 7 7 0 12 -4 12 -9z m385 -1 c-3 -5 -12 -10 -18 -10 -7 0 -6 4 3 10 19 12 23
12 15 0z m-1050 -9 c3 -5 2 -12 -3 -15 -5 -3 -9 1 -9 9 0 17 3 19 12 6z m148
-2 c10 8 14 7 14 -4 0 -8 -5 -11 -10 -8 -6 4 -8 0 -5 -8 4 -10 -1 -15 -12 -15
-11 0 -16 5 -12 15 3 8 1 12 -5 8 -5 -3 -10 0 -10 8 0 11 4 12 14 4 9 -8 17
-8 26 0z m381 -5 c3 -8 2 -12 -4 -9 -6 3 -10 10 -10 16 0 14 7 11 14 -7z m46
2 c-7 -7 -13 -7 -20 0 -6 6 -3 10 10 10 13 0 16 -4 10 -10z m143 -6 c-3 -12
-8 -19 -11 -16 -5 6 5 36 12 36 2 0 2 -9 -1 -20z m83 -6 c1 -9 0 -13 -4 -10
-3 4 -7 14 -8 22 -1 9 0 13 4 10 3 -4 7 -14 8 -22z m-759 -6 c-3 -8 -6 -5 -6
6 -1 11 2 17 5 13 3 -3 4 -12 1 -19z m700 7 c0 -8 -4 -12 -9 -9 -5 3 -6 10 -3
15 9 13 12 11 12 -6z m167 3 c-4 -5 -9 -7 -12 -4 -3 3 -12 0 -21 -7 -14 -10
-14 -10 -4 4 13 16 46 23 37 7z m30 3 c3 -5 -2 -15 -12 -22 -15 -12 -16 -12
-5 2 7 9 10 19 6 22 -3 4 -4 7 0 7 3 0 8 -4 11 -9z m446 3 c0 -8 -19 -13 -24
-6 -3 5 1 9 9 9 8 0 15 -2 15 -3z m-129 -31 c13 -16 12 -17 -3 -4 -10 7 -18
15 -18 17 0 8 8 3 21 -13z m-993 -7 c19 3 23 2 13 -5 -18 -12 -44 -7 -47 8 -1
6 0 7 2 2 3 -5 17 -7 32 -5z m59 -8 c-3 -8 -6 -5 -6 6 -1 11 2 17 5 13 3 -3 4
-12 1 -19z m63 7 c0 -1 -8 -5 -18 -7 -11 -3 -19 0 -19 7 0 7 8 10 19 7 10 -2
18 -6 18 -7z m247 9 c-3 -3 -12 -4 -19 -1 -8 3 -5 6 6 6 11 1 17 -2 13 -5z
m209 -13 c0 -11 -5 -17 -13 -14 -10 4 -11 9 -2 19 15 18 15 18 15 -5z m61 4
c0 -8 -4 -12 -9 -9 -5 3 -6 10 -3 15 9 13 12 11 12 -6z m118 3 c5 4 5 1 1 -6
-6 -10 -11 -10 -22 -1 -8 6 -14 14 -14 16 0 3 6 0 13 -6 8 -6 18 -7 22 -3z
m-995 -4 c0 -8 -19 -13 -24 -6 -3 5 1 9 9 9 8 0 15 -2 15 -3z m154 -2 c3 -5
-1 -9 -9 -9 -8 0 -12 4 -9 9 3 4 7 8 9 8 2 0 6 -4 9 -8z m403 1 c-4 -3 -3 -11
3 -17 6 -8 3 -12 -9 -12 -12 0 -17 6 -13 18 2 10 9 18 15 18 6 0 7 -3 4 -7z
m223 -5 c0 -11 -12 -10 -30 2 -12 7 -10 9 8 7 12 0 22 -5 22 -9z m276 0 c4 -7
4 -10 -1 -6 -4 4 -15 2 -24 -5 -14 -11 -14 -10 -2 6 16 20 18 21 27 5z m-98
-11 c8 -10 6 -13 -7 -13 -11 0 -17 6 -14 13 3 7 6 13 8 13 1 0 7 -6 13 -13z
m-993 -6 c-9 -8 -36 -10 -30 -2 2 4 11 8 20 8 8 0 13 -3 10 -6z m315 3 c0 -8
-19 -13 -24 -6 -3 5 1 9 9 9 8 0 15 -2 15 -3z m82 -13 c-4 -10 -7 -11 -10 -3
-2 7 -9 9 -14 6 -6 -4 -8 -3 -5 3 10 16 36 11 29 -6z m117 3 c-6 -7 -8 -18 -5
-23 4 -5 1 -13 -5 -17 -8 -5 -9 -3 -4 6 6 9 4 12 -6 8 -10 -4 -15 1 -15 12 0
11 5 16 15 12 8 -3 12 -1 8 5 -3 5 0 10 8 10 11 0 12 -4 4 -13z m160 9 c-3
-20 2 -26 11 -13 7 11 10 11 10 2 0 -8 5 -10 13 -6 6 4 8 3 4 -2 -4 -4 -18 -9
-31 -10 -21 -1 -25 7 -17 34 2 6 11 1 10 -5z m111 -12 c7 -15 7 -19 -5 -17 -8
1 -18 6 -22 11 -5 4 -2 5 6 0 11 -6 13 -4 8 8 -9 23 0 21 13 -2z m165 1 c-3
-3 -11 0 -18 7 -9 10 -8 11 6 5 10 -3 15 -9 12 -12z m90 8 c-3 -5 -12 -10 -18
-10 -7 0 -6 4 3 10 19 12 23 12 15 0z m290 0 c3 -5 1 -10 -4 -10 -6 0 -11 5
-11 10 0 6 2 10 4 10 3 0 8 -4 11 -10z m45 0 c0 -5 -5 -10 -11 -10 -5 0 -7 5
-4 10 3 6 8 10 11 10 2 0 4 -4 4 -10z m-1270 -16 c0 -8 -19 -13 -24 -6 -3 5 1
9 9 9 8 0 15 -2 15 -3z m110 0 c0 -8 -19 -13 -24 -6 -3 5 1 9 9 9 8 0 15 -2
15 -3z m90 -9 c0 -2 -6 -5 -13 -8 -8 -3 -14 1 -14 8 0 7 6 11 14 8 7 -3 13 -6
13 -8z m50 5 c0 -5 -4 -10 -10 -10 -5 0 -10 5 -10 10 0 6 5 10 10 10 6 0 10
-4 10 -10z m274 -6 c3 -8 2 -12 -4 -9 -6 3 -10 10 -10 16 0 14 7 11 14 -7z
m293 -6 c-3 -8 -6 -5 -6 6 -1 11 2 17 5 13 3 -3 4 -12 1 -19z m250 7 c0 -8 -4
-12 -9 -9 -4 3 -8 9 -8 15 0 5 4 9 8 9 5 0 9 -7 9 -15z m-142 -5 c-3 -5 0 -10
7 -11 10 0 10 -2 0 -6 -6 -2 -9 -10 -6 -15 4 -6 2 -8 -4 -5 -5 4 -9 15 -7 25
5 23 4 22 11 22 3 0 2 -4 -1 -10z m80 -11 c-3 -12 -7 -24 -10 -27 -3 -3 -3 5
-1 19 6 30 5 29 10 29 3 0 3 -10 1 -21z m-839 -27 c-2 -9 -8 -17 -15 -18 -6
-1 -7 0 -2 2 5 3 7 17 5 32 -3 19 -2 23 5 13 5 -7 8 -21 7 -29z m49 28 c-3 -5
-12 -10 -18 -10 -7 0 -6 4 3 10 19 12 23 12 15 0z m79 2 c3 -5 -1 -9 -9 -9 -8
0 -12 4 -9 9 3 4 7 8 9 8 2 0 6 -4 9 -8z m196 -8 c-6 -6 -7 -14 -3 -17 3 -4 2
-7 -4 -7 -6 0 -13 8 -15 18 -4 12 1 18 13 18 12 0 15 -4 9 -12z m156 -9 c0
-13 -6 -27 -13 -29 -10 -4 -11 -1 -5 12 5 9 7 23 5 30 -3 6 -1 12 4 12 5 0 9
-11 9 -25z m329 15 c-3 -5 -12 -10 -18 -10 -7 0 -6 4 3 10 19 12 23 12 15 0z
m150 2 c-3 -3 0 -11 6 -19 17 -20 5 -16 -14 5 -15 16 -15 19 -2 19 8 0 13 -3
10 -5z m51 -4 c3 -4 -1 -5 -10 -4 -8 1 -18 5 -22 8 -3 4 1 5 10 4 8 -1 18 -5
22 -8z m254 6 c0 -8 -19 -13 -24 -6 -3 5 1 9 9 9 8 0 15 -2 15 -3z m-1508 -29
c16 -20 16 -21 0 -21 -11 0 -18 9 -19 24 0 13 0 22 1 20 0 -2 9 -12 18 -23z
m65 11 c0 -8 -6 -12 -15 -9 -11 5 -11 7 0 14 7 5 13 9 14 9 0 0 1 -6 1 -14z
m80 -1 c0 -5 -12 -10 -27 -10 -15 0 -27 5 -27 10 0 6 12 10 27 10 15 0 27 -4
27 -10z m59 -19 c1 -9 -2 -14 -7 -10 -5 3 -6 10 -3 16 5 7 2 9 -8 6 -8 -4 -15
0 -15 8 0 19 30 1 33 -20z m421 19 c0 -8 -5 -11 -10 -8 -7 4 -8 -1 -3 -13 6
-15 5 -16 -5 -7 -10 10 -9 15 1 28 15 19 17 19 17 0z m225 1 c11 6 11 5 0 -8
-10 -13 -10 -17 0 -21 7 -3 3 -4 -8 -4 -15 1 -20 6 -16 16 3 8 1 12 -5 8 -5
-3 -10 0 -10 8 0 11 4 12 13 4 7 -6 19 -7 26 -3z m-931 -19 c-10 -9 -11 -8 -5
6 3 10 9 15 12 12 3 -3 0 -11 -7 -18z m386 9 c0 -8 -6 -12 -15 -9 -11 5 -11 7
0 14 7 5 13 9 14 9 0 0 1 -6 1 -14z m117 -3 c4 -10 1 -11 -12 -5 -9 5 -24 7
-32 5 -11 -3 -12 -2 -2 5 19 13 40 11 46 -5z m543 2 c0 -8 -4 -12 -9 -9 -5 3
-6 10 -3 15 9 13 12 11 12 -6z m208 4 c3 -3 -6 -5 -19 -5 -14 1 -28 4 -31 7
-3 3 6 5 19 5 14 -1 28 -4 31 -7z m116 -2 c-6 -8 -7 -18 -3 -22 4 -5 1 -5 -6
-1 -10 6 -10 11 -1 22 6 8 14 14 16 14 3 0 0 -6 -6 -13z m72 -5 c15 -16 15
-19 2 -19 -8 0 -13 3 -10 5 3 3 0 11 -6 19 -17 20 -5 16 14 -5z m62 8 c3 -5 1
-10 -4 -10 -6 0 -11 5 -11 10 0 6 2 10 4 10 3 0 8 -4 11 -10z m-1460 -19 c3
-5 2 -12 -3 -15 -5 -3 -9 1 -9 9 0 17 3 19 12 6z m165 5 c0 -2 -7 -7 -16 -10
-8 -3 -12 -2 -9 4 6 10 25 14 25 6z m912 -18 c-2 -10 -6 -18 -7 -18 -1 0 -5 8
-7 18 -3 11 0 19 7 19 7 0 10 -8 7 -19z m84 -4 c1 -9 0 -13 -4 -10 -3 4 -7 14
-8 22 -1 9 0 13 4 10 3 -4 7 -14 8 -22z m208 18 c2 -4 -4 -8 -14 -8 -10 0 -16
4 -14 8 3 4 9 8 14 8 5 0 11 -4 14 -8z m356 -2 c0 -5 -2 -10 -4 -10 -3 0 -8 5
-11 10 -3 6 -1 10 4 10 6 0 11 -4 11 -10z m-744 -19 c0 -16 -3 -17 -14 -9 -12
10 -7 19 13 28 1 0 1 -9 1 -19z m117 4 c-3 -9 -8 -14 -10 -11 -3 3 -2 9 2 15
9 16 15 13 8 -4z m175 2 c14 4 14 3 2 -5 -16 -12 -30 -7 -29 11 0 9 2 9 5 0 3
-7 13 -9 22 -6z m166 -17 c-6 -6 -10 -3 -10 10 0 13 4 16 10 10 7 -7 7 -13 0
-20z m124 5 c-3 -3 -9 2 -12 12 -6 14 -5 15 5 6 7 -7 10 -15 7 -18z m-1592 3
c3 -4 -1 -5 -10 -4 -8 1 -18 5 -22 8 -3 4 1 5 10 4 8 -1 18 -5 22 -8z m159 2
c3 -6 -1 -7 -9 -4 -18 7 -21 14 -7 14 6 0 13 -4 16 -10z m40 0 c-3 -5 -12 -10
-18 -10 -7 0 -6 4 3 10 19 12 23 12 15 0z m120 0 c-3 -5 -12 -10 -18 -10 -7 0
-6 4 3 10 19 12 23 12 15 0z m109 -6 c3 -8 0 -16 -6 -20 -7 -5 -8 -2 -3 6 6 9
4 12 -7 8 -8 -4 -15 -1 -15 6 0 17 25 16 31 0z m123 9 c-4 -3 -2 -11 3 -18 7
-8 5 -12 -5 -12 -8 0 -11 5 -8 10 4 7 -1 8 -13 4 -18 -7 -18 -7 0 8 20 15 35
21 23 8z m114 -10 c13 -16 12 -17 -3 -4 -14 11 -18 11 -18 1 0 -8 -3 -11 -6
-7 -5 5 3 27 10 27 2 0 10 -8 17 -17z m88 2 c3 -3 -7 -4 -23 -1 -16 3 -31 8
-35 11 -3 3 7 4 23 1 16 -3 31 -8 35 -11z m815 7 c3 -5 -1 -9 -9 -9 -8 0 -12
4 -9 9 3 4 7 8 9 8 2 0 6 -4 9 -8z m102 -20 c-3 -3 0 -12 6 -21 10 -13 10 -14
-2 -4 -16 15 -23 46 -8 37 5 -3 7 -9 4 -12z m-1601 0 c-3 -3 0 -10 5 -17 7 -8
5 -12 -5 -12 -8 0 -13 3 -10 5 3 3 0 10 -5 17 -7 8 -5 12 5 12 8 0 13 -3 10
-5z m47 1 c-10 -4 -9 -10 5 -26 12 -15 13 -18 2 -9 -9 6 -20 8 -25 4 -5 -4 -6
-3 -2 2 4 5 4 14 -2 20 -6 8 -2 12 13 13 12 0 16 -1 9 -4z m120 -15 c-2 -10
-9 -18 -15 -18 -6 0 -7 3 -4 7 4 3 3 11 -3 17 -6 8 -3 12 9 12 12 0 17 -6 13
-18z m121 -3 c4 3 5 2 3 -1 -2 -3 -6 -4 -9 -2 -2 2 -11 -3 -19 -9 -12 -10 -15
-10 -15 2 0 8 5 11 10 8 7 -4 8 1 4 13 -7 18 -6 18 6 2 8 -10 17 -16 20 -13z
m353 -10 c0 -14 -4 -25 -9 -25 -5 0 -7 6 -4 13 2 6 0 20 -5 29 -6 13 -5 16 5
12 7 -2 13 -16 13 -29z m121 29 c-3 -3 -12 -4 -19 -1 -8 3 -5 6 6 6 11 1 17
-2 13 -5z m43 -10 c-6 -6 -7 -14 -3 -17 3 -4 2 -7 -4 -7 -6 0 -13 8 -15 18 -4
12 1 18 13 18 12 0 15 -4 9 -12z m114 7 c3 -5 -2 -15 -12 -22 -15 -13 -16 -12
-4 3 10 13 10 17 0 21 -9 4 -9 6 -1 6 6 1 14 -3 17 -8z m42 -15 c-2 -14 0 -27
5 -30 5 -2 4 -3 -3 -2 -12 2 -13 12 -9 46 0 6 3 10 6 10 3 0 3 -11 1 -24z
m287 7 c-4 -10 -2 -14 4 -10 5 3 10 0 10 -8 0 -12 -4 -12 -19 2 -14 13 -16 18
-6 25 18 11 18 10 11 -9z m122 9 c-12 -8 -13 -61 -3 -78 4 -6 1 -11 -7 -11 -8
0 -11 5 -8 10 4 6 0 8 -9 5 -8 -4 -15 -1 -15 7 0 7 6 11 12 9 13 -5 15 33 3
51 -4 6 3 12 15 12 12 1 17 -1 12 -5z m280 -2 c3 -6 -1 -7 -9 -4 -18 7 -21 14
-7 14 6 0 13 -4 16 -10z m135 6 c0 -3 -4 -8 -10 -11 -5 -3 -10 -1 -10 4 0 6 5
11 10 11 6 0 10 -2 10 -4z m-1364 -25 c0 -12 -6 -17 -18 -13 -10 2 -18 9 -18
14 0 5 4 7 9 3 5 -3 12 -1 16 5 9 14 11 13 11 -9z m621 13 c-3 -3 -12 -4 -19
-1 -8 3 -5 6 6 6 11 1 17 -2 13 -5z m-500 -19 c5 -4 2 -5 -6 0 -11 6 -13 4 -8
-7 4 -12 1 -14 -16 -10 -12 3 -16 7 -9 10 7 2 10 7 7 12 -7 11 22 7 32 -5z
m547 7 c3 -5 -1 -9 -9 -9 -8 0 -15 4 -15 9 0 4 4 8 9 8 6 0 12 -4 15 -8z m113
1 c-4 -3 -3 -11 3 -17 6 -8 3 -12 -9 -12 -12 0 -17 6 -13 18 2 10 9 18 15 18
6 0 7 -3 4 -7z m252 -16 c0 -9 -2 -8 -6 1 -2 6 -10 9 -15 6 -7 -4 -8 -2 -4 5
9 13 26 5 25 -12z m-454 4 c3 -5 2 -12 -3 -15 -5 -3 -9 1 -9 9 0 17 3 19 12 6z
m525 -12 c0 -5 -4 -9 -8 -9 -5 0 -9 7 -9 15 0 8 4 12 9 9 4 -3 8 -9 8 -15z
m-488 -8 c-5 -13 -3 -14 9 -4 12 10 15 8 16 -10 0 -12 -1 -16 -4 -9 -3 6 -9
10 -13 7 -5 -3 -13 3 -19 13 -7 14 -6 19 4 19 8 0 11 -7 7 -16z m83 -12 c1
-11 -3 -23 -8 -26 -6 -4 -7 -1 -2 7 6 9 4 12 -6 8 -10 -4 -15 1 -15 12 0 11 5
16 15 12 10 -4 12 -1 6 9 -4 8 -4 11 0 6 5 -4 9 -17 10 -28z m-1097 -4 c-3 -3
-9 2 -12 12 -6 14 -5 15 5 6 7 -7 10 -15 7 -18z m104 11 c10 6 11 5 1 -8 -7
-8 -11 -17 -8 -20 3 -2 -2 -5 -10 -5 -8 0 -12 4 -9 9 3 5 0 17 -8 26 -12 15
-11 16 4 4 10 -8 23 -10 30 -6z m165 8 c-3 -3 -12 -4 -19 -1 -8 3 -5 6 6 6 11
1 17 -2 13 -5z m409 -9 c-1 -8 -6 -18 -11 -22 -4 -4 -5 -2 -1 5 4 7 2 12 -6
12 -9 0 -9 3 2 10 19 12 19 13 16 -5z m158 3 c-5 -8 -2 -9 12 -4 10 4 15 4 11
0 -4 -4 -2 -12 3 -19 7 -8 5 -12 -5 -12 -8 0 -11 5 -8 10 4 6 -1 8 -11 4 -10
-4 -15 -3 -11 3 3 6 0 10 -7 10 -9 0 -9 3 2 10 20 13 23 12 14 -2z m379 -3
c-3 -9 -8 -14 -10 -11 -3 3 -2 9 2 15 9 16 15 13 8 -4z m68 0 c5 4 6 -1 2 -10
-5 -13 -7 -14 -14 -3 -8 13 -13 3 -9 -17 1 -5 -2 -6 -6 -2 -11 11 -14 38 -3
31 5 -3 9 1 10 8 0 10 2 10 6 0 2 -6 9 -10 14 -7z m360 -27 c-10 -11 -11 -9
-5 6 5 12 4 17 -3 13 -5 -3 -10 1 -10 9 0 13 2 13 16 0 12 -13 13 -18 2 -28z
m-1610 9 c-10 -9 -11 -8 -5 6 3 10 9 15 12 12 3 -3 0 -11 -7 -18z m185 6 c-1
-7 -6 -16 -10 -20 -4 -4 -7 -3 -6 2 4 20 -1 30 -9 17 -7 -11 -9 -11 -14 0 -3
9 3 14 18 14 13 0 22 -6 21 -13z m486 -1 c3 -11 0 -19 -7 -19 -7 0 -10 8 -7
19 2 10 6 18 7 18 1 0 5 -8 7 -18z m-366 -16 c0 -23 -17 -29 -33 -11 -4 4 -3
5 4 1 6 -3 14 -2 18 4 3 5 0 10 -7 10 -9 0 -9 3 2 10 8 5 15 10 16 10 0 0 0
-11 0 -24z m240 1 c0 -13 -6 -24 -13 -24 -9 0 -10 4 -2 14 9 10 8 13 -2 13
-11 0 -11 2 1 10 8 5 15 10 16 10 0 0 0 -10 0 -23z m927 10 c3 -8 -1 -14 -8
-14 -7 0 -11 6 -8 14 3 7 6 13 8 13 2 0 5 -6 8 -13z m-568 -29 c-3 -11 -7 -23
-11 -27 -4 -3 -4 1 -2 9 3 8 1 23 -4 32 -6 13 -5 16 6 12 8 -3 13 -14 11 -26z
m245 16 c-6 -6 -7 -14 -3 -17 3 -4 2 -7 -4 -7 -6 0 -13 8 -15 18 -4 12 1 18
13 18 12 0 15 -4 9 -12z m277 -6 c2 -18 0 -20 -7 -8 -12 18 -13 30 -2 30 4 0
9 -10 9 -22z m80 7 c0 -8 -4 -12 -9 -9 -5 3 -6 10 -3 15 9 13 12 11 12 -6z
m38 -19 c1 -14 -1 -29 -5 -31 -4 -2 -6 8 -5 23 1 15 -3 31 -9 35 -7 6 -6 7 4
5 8 -3 15 -17 15 -32z m495 28 c0 -8 -19 -13 -24 -6 -3 5 1 9 9 9 8 0 15 -2
15 -3z m-1933 -10 c-3 -3 -12 -4 -19 -1 -8 3 -5 6 6 6 11 1 17 -2 13 -5z m323
-17 c0 -6 -3 -7 -7 -4 -3 4 -11 3 -17 -3 -8 -6 -12 -3 -12 9 0 12 6 17 18 13
10 -2 18 -9 18 -15z m276 8 c-1 -8 -5 -17 -8 -21 -5 -4 -4 16 1 34 3 9 9 -1 7
-13z m646 8 c-6 -2 -10 -9 -7 -13 3 -5 1 -11 -4 -14 -7 -5 -8 11 -2 32 1 1 7
2 14 1 9 0 9 -2 -1 -6z m445 -11 c-10 -10 -15 -21 -12 -24 3 -3 -3 -11 -12
-19 -16 -13 -17 -12 -4 4 7 9 10 17 6 17 -5 0 0 9 10 20 10 11 20 20 23 20 3
0 -2 -8 -11 -18z m-1653 -24 c1 -13 5 -30 10 -38 7 -12 6 -13 -4 -3 -8 7 -15
27 -16 44 -2 17 0 28 3 25 3 -3 7 -16 7 -28z m80 21 c3 -3 -5 -5 -19 -5 -13 0
-22 3 -19 7 4 8 30 6 38 -2z m406 1 c0 -5 -4 -10 -10 -10 -5 0 -10 5 -10 10 0
6 5 10 10 10 6 0 10 -4 10 -10z m160 2 c0 -5 -7 -9 -15 -9 -8 0 -12 4 -9 9 3
4 9 8 15 8 5 0 9 -4 9 -8z m477 -12 c-1 -11 -5 -20 -9 -20 -10 0 -10 4 -2 24
8 22 13 20 11 -4z m467 12 c3 -5 -1 -9 -9 -9 -8 0 -15 4 -15 9 0 4 4 8 9 8 6
0 12 -4 15 -8z m153 -9 c0 -9 -4 -10 -14 -2 -7 6 -13 12 -13 14 0 1 6 2 13 2
8 0 14 -6 14 -14z m108 7 c-3 -5 -12 -10 -18 -10 -7 0 -6 4 3 10 19 12 23 12
15 0z m-1960 -20 c-3 -5 -12 -10 -18 -10 -7 0 -6 4 3 10 19 12 23 12 15 0z
m308 -3 c-4 -6 1 -8 11 -4 11 5 15 3 10 -5 -5 -7 -2 -9 9 -5 9 3 21 -1 28 -11
11 -14 11 -15 -1 -5 -10 9 -19 9 -34 1 -12 -6 -18 -7 -14 -3 4 4 -2 15 -14 25
-17 13 -18 17 -5 17 9 0 13 -5 10 -10z m126 6 c-3 -20 2 -26 11 -13 7 11 10
11 10 2 0 -7 4 -11 9 -8 5 3 15 -2 22 -12 13 -16 13 -16 -5 -2 -18 13 -19 13
-14 -1 4 -9 1 -16 -7 -16 -8 0 -11 7 -7 16 3 9 2 13 -3 9 -10 -10 -37 11 -29
23 6 11 14 12 13 2z m114 -6 c-4 -6 0 -8 10 -4 11 4 14 2 10 -9 -7 -18 -7 -18
-26 4 -14 15 -15 19 -2 19 8 0 11 -5 8 -10z m94 7 c-3 -3 -12 -4 -19 -1 -8 3
-5 6 6 6 11 1 17 -2 13 -5z m66 -7 c-4 -6 0 -8 9 -4 12 4 14 1 10 -16 -3 -12
-7 -16 -10 -9 -2 7 -9 9 -15 5 -7 -3 -9 -3 -5 2 4 4 3 13 -2 20 -7 8 -5 12 5
12 8 0 11 -5 8 -10z m210 -4 c-3 -7 -6 -13 -8 -13 -2 0 -5 6 -8 13 -3 8 1 14
8 14 7 0 11 -6 8 -14z m77 10 c0 -5 -5 -15 -10 -23 -7 -12 -9 -10 -7 8 1 19
17 33 17 15z m354 -5 c-5 -7 -2 -9 8 -5 12 4 14 1 10 -16 -3 -12 -7 -16 -10
-9 -2 7 -7 10 -12 7 -5 -3 -7 3 -5 12 5 24 4 23 11 23 3 0 2 -5 -2 -12z m89
-5 c-3 -7 -6 -13 -8 -13 -2 0 -5 6 -8 13 -3 8 1 14 8 14 7 0 11 -6 8 -14z
m119 -5 c-2 -10 -6 -18 -7 -18 -1 0 -5 8 -7 18 -3 11 0 19 7 19 7 0 10 -8 7
-19z m238 18 c0 -2 -7 -7 -16 -10 -8 -3 -12 -2 -9 4 6 10 25 14 25 6z m36 -32
c1 -9 -1 -13 -4 -9 -4 4 -7 10 -7 13 0 4 -4 14 -9 22 -7 12 -6 13 4 3 8 -7 15
-20 16 -29z m259 26 c3 -5 1 -10 -4 -10 -6 0 -11 5 -11 10 0 6 2 10 4 10 3 0
8 -4 11 -10z m39 2 c3 -5 -1 -9 -9 -9 -8 0 -12 4 -9 9 3 4 7 8 9 8 2 0 6 -4 9
-8z m-2073 -19 c13 -16 12 -17 -3 -4 -10 7 -18 15 -18 17 0 8 8 3 21 -13z
m137 -8 c-3 -3 -9 2 -12 12 -6 14 -5 15 5 6 7 -7 10 -15 7 -18z m1475 10 c-3
-9 -8 -14 -10 -11 -3 3 -2 9 2 15 9 16 15 13 8 -4z m340 0 c-3 -9 -8 -14 -10
-11 -3 3 -2 9 2 15 9 16 15 13 8 -4z m-1839 -11 c3 -8 2 -12 -4 -9 -6 3 -10
10 -10 16 0 14 7 11 14 -7z m120 8 c3 -5 -1 -9 -9 -9 -8 0 -12 4 -9 9 3 4 7 8
9 8 2 0 6 -4 9 -8z m323 -7 c0 -8 -4 -12 -9 -9 -5 3 -6 10 -3 15 9 13 12 11
12 -6z m462 -3 c7 -14 6 -19 -4 -19 -8 0 -11 7 -7 16 5 14 4 14 -14 1 -18 -14
-18 -14 -5 3 17 21 18 21 30 -1z m81 6 c0 -4 -4 -8 -9 -8 -6 0 -12 4 -15 8 -3
5 1 9 9 9 8 0 15 -4 15 -9z m549 -2 c9 -11 9 -16 0 -22 -8 -5 -9 -3 -4 6 6 10
4 12 -8 7 -11 -4 -14 -2 -10 9 6 17 8 17 22 0z m100 -9 c0 -9 -2 -8 -6 1 -2 6
-10 9 -15 6 -7 -4 -8 -2 -4 5 9 13 26 5 25 -12z m471 17 c0 -8 -19 -13 -24 -6
-3 5 1 9 9 9 8 0 15 -2 15 -3z m45 -4 c-3 -5 -12 -10 -18 -10 -7 0 -6 4 3 10
19 12 23 12 15 0z m55 0 c0 -5 -5 -10 -11 -10 -5 0 -7 5 -4 10 3 6 8 10 11 10
2 0 4 -4 4 -10z m-1787 -13 c3 -8 -1 -14 -8 -14 -7 0 -11 6 -8 14 3 7 6 13 8
13 2 0 5 -6 8 -13z m640 0 c3 -8 -1 -14 -8 -14 -7 0 -11 6 -8 14 3 7 6 13 8
13 2 0 5 -6 8 -13z m682 -23 c0 -15 -7 -29 -15 -32 -10 -2 -11 -1 -4 5 6 4 10
20 9 35 -1 15 1 25 5 23 4 -2 6 -17 5 -31z m126 19 c13 -16 12 -17 -3 -4 -10
7 -18 15 -18 17 0 8 8 3 21 -13z m-1405 -17 c-2 -14 0 -27 5 -30 5 -2 4 -3 -3
-2 -12 2 -13 12 -9 46 0 6 3 10 6 10 3 0 3 -11 1 -24z m399 -4 c2 -12 -3 -23
-11 -26 -11 -4 -12 -1 -6 12 5 9 7 24 4 32 -2 8 -2 12 2 9 4 -4 8 -16 11 -27z
m242 16 c-2 -7 0 -21 5 -30 6 -13 5 -16 -5 -12 -14 5 -18 54 -4 54 5 0 7 -6 4
-12z m683 -2 c-7 -7 -13 -7 -20 0 -6 6 -3 10 10 10 13 0 16 -4 10 -10z m-1663
-18 c-3 -8 -6 -5 -6 6 -1 11 2 17 5 13 3 -3 4 -12 1 -19z m100 7 c0 -8 -4 -12
-9 -9 -5 3 -6 10 -3 15 9 13 12 11 12 -6z m116 0 c-3 -9 -8 -14 -10 -11 -3 3
-2 9 2 15 9 16 15 13 8 -4z m303 -4 c0 -12 -6 -17 -18 -13 -10 2 -18 9 -18 14
0 5 4 7 9 3 5 -3 12 -1 16 5 9 14 11 13 11 -9z m121 5 c0 -8 -8 -11 -21 -8
-19 5 -19 6 0 13 10 4 19 8 20 8 0 1 1 -5 1 -13z m519 -5 c0 -14 -4 -17 -12
-11 -6 6 -14 7 -17 3 -4 -3 -7 -1 -7 5 0 6 8 13 18 15 9 3 17 5 17 6 1 0 1 -8
1 -18z m62 5 c19 3 23 2 13 -5 -18 -12 -44 -7 -47 8 -1 6 0 7 2 2 3 -5 17 -7
32 -5z m128 2 c5 4 3 0 -4 -10 -10 -13 -10 -17 0 -21 7 -3 3 -4 -9 -4 -18 1
-20 4 -10 16 10 12 9 14 -4 9 -9 -4 -16 -1 -16 7 0 10 5 11 17 5 10 -5 21 -6
26 -2z m378 -7 c14 -15 15 -21 4 -27 -7 -4 -10 -3 -5 1 4 5 0 17 -10 27 -9 10
-14 18 -11 18 3 0 13 -9 22 -19z m73 6 c0 -8 -6 -14 -14 -14 -9 0 -10 4 -2 14
6 7 12 13 14 13 1 0 2 -6 2 -13z m-1920 -12 c0 -8 -4 -12 -9 -9 -5 3 -6 10 -3
15 9 13 12 11 12 -6z m63 4 c0 -4 -9 -7 -19 -6 -11 0 -18 4 -16 7 6 9 35 8 35
-1z m196 -13 c0 -16 -4 -22 -14 -19 -11 5 -11 7 0 14 7 5 9 9 5 9 -5 0 -5 5
-2 10 9 15 11 12 11 -14z m144 9 c0 -2 -9 -3 -19 -2 -11 0 -18 5 -15 9 4 6 34
0 34 -7z m114 7 c3 -5 -1 -9 -9 -9 -8 0 -12 4 -9 9 3 4 7 8 9 8 2 0 6 -4 9 -8z
m642 -4 c5 -7 3 -8 -6 -3 -9 6 -12 4 -8 -7 4 -8 0 -15 -7 -15 -10 0 -11 5 -4
19 11 21 15 22 25 6z m438 -5 c4 -10 1 -11 -12 -5 -9 5 -23 7 -29 5 -7 -3 -13
-1 -13 4 0 14 49 10 54 -4z m221 -3 c-3 -4 0 -11 5 -13 6 -3 5 -4 -1 -3 -7 1
-13 10 -15 19 -1 9 2 15 7 11 5 -3 7 -9 4 -14z m540 1 c3 -5 2 -12 -3 -15 -5
-3 -9 1 -9 9 0 17 3 19 12 6z m-1699 -27 c-3 -15 -8 -29 -11 -32 -3 -3 -3 5
-1 19 2 13 5 27 5 32 1 4 3 7 6 7 3 0 3 -12 1 -26z m91 11 c4 -4 3 -5 -4 -2
-6 4 -13 2 -15 -5 -3 -8 -6 -6 -10 4 -7 17 15 19 29 3z m633 9 c0 -8 -19 -13
-24 -6 -3 5 1 9 9 9 8 0 15 -2 15 -3z m320 -9 c0 -12 -19 -12 -23 0 -4 9 -1
12 9 8 7 -3 14 -7 14 -8z m199 -19 c-3 -3 -11 5 -18 17 -13 21 -12 21 5 5 10
-10 16 -20 13 -22z m78 17 c-14 -14 -19 -15 -29 -4 -11 10 -10 11 3 6 10 -4
20 -2 24 4 3 6 9 11 13 11 3 0 -1 -8 -11 -17z m338 8 c3 -5 2 -12 -3 -15 -5
-3 -9 1 -9 9 0 17 3 19 12 6z m-1808 -7 c-3 -3 -12 -4 -19 -1 -8 3 -5 6 6 6
11 1 17 -2 13 -5z m450 -13 c-1 -16 -4 -18 -16 -8 -12 10 -14 9 -9 -4 4 -9 1
-16 -7 -16 -10 0 -11 5 -4 19 6 10 14 16 20 13 5 -4 9 -1 9 4 0 6 2 11 4 11 3
0 4 -9 3 -19z m43 4 c5 3 13 -3 19 -13 7 -14 6 -19 -4 -19 -8 0 -11 7 -7 16 5
13 3 14 -9 4 -12 -10 -15 -8 -16 10 0 12 1 16 4 9 3 -6 9 -10 13 -7z m180 -6
c0 -5 -4 -9 -8 -9 -5 0 -9 7 -9 15 0 8 4 12 9 9 4 -3 8 -9 8 -15z m737 -1 c-3
-8 -6 -5 -6 6 -1 11 2 17 5 13 3 -3 4 -12 1 -19z m-1536 -10 c5 -10 4 -15 -5
-15 -8 0 -12 7 -8 15 3 10 1 13 -6 8 -6 -3 -13 -2 -16 3 -4 5 1 8 10 7 9 -1
20 -9 25 -18z m396 7 c0 -8 -4 -12 -9 -9 -4 3 -8 9 -8 15 0 5 4 9 8 9 5 0 9
-7 9 -15z m520 -5 c-1 -11 -5 -20 -9 -20 -3 0 -6 9 -5 20 1 11 5 20 9 20 3 0
6 -9 5 -20z m123 10 c0 -5 -4 -10 -10 -10 -5 0 -10 5 -10 10 0 6 5 10 10 10 6
0 10 -4 10 -10z m196 -16 c-3 -15 -8 -29 -11 -32 -3 -3 -3 5 -1 19 2 13 5 27
5 32 1 4 3 7 6 7 3 0 3 -12 1 -26z m129 16 c-3 -5 -12 -10 -18 -10 -7 0 -6 4
3 10 19 12 23 12 15 0z m432 3 c-4 -3 -1 -13 6 -22 11 -14 10 -14 -5 -2 -21
15 -23 31 -6 31 6 0 8 -3 5 -7z m57 -1 c3 -5 -1 -9 -9 -9 -8 0 -12 4 -9 9 3 4
7 8 9 8 2 0 6 -4 9 -8z m50 0 c3 -5 -1 -9 -9 -9 -8 0 -12 4 -9 9 3 4 7 8 9 8
2 0 6 -4 9 -8z m-901 -15 c7 3 8 2 4 -2 -14 -16 -36 -14 -29 3 4 10 7 12 10 4
2 -7 9 -9 15 -5z m153 -11 c0 -23 -17 -29 -33 -11 -4 4 -3 5 4 1 6 -3 14 -2
18 4 3 5 0 10 -7 10 -9 0 -9 3 2 10 8 5 15 10 16 10 0 0 0 -11 0 -24z m-1346
9 c0 -7 -30 -13 -34 -7 -3 4 4 9 15 9 10 1 19 0 19 -2z m40 0 c0 -2 -6 -8 -13
-14 -10 -8 -14 -7 -14 2 0 8 6 14 14 14 7 0 13 -1 13 -2z m352 -13 c-7 -2 -10
-7 -7 -12 7 -11 -22 -7 -32 5 -5 4 -2 5 6 0 11 -6 13 -4 8 7 -4 12 -1 14 16
10 12 -3 16 -7 9 -10z m217 -18 c-14 -13 -16 -13 -16 0 0 8 5 12 10 9 7 -4 8
1 3 13 -6 15 -5 17 5 6 11 -10 10 -15 -2 -28z m64 30 c-6 -3 -10 -17 -7 -32 3
-19 2 -23 -5 -13 -7 11 -8 29 -2 49 1 1 7 2 14 1 9 0 9 -2 0 -5z m32 -3 c3 -5
2 -12 -3 -15 -5 -3 -9 1 -9 9 0 17 3 19 12 6z m201 -13 c1 -8 -2 -22 -7 -29
-7 -10 -8 -6 -5 13 2 15 0 29 -5 32 -5 2 -4 3 2 2 7 -1 13 -9 15 -18z m126 4
c-7 -2 -9 -9 -5 -15 3 -7 3 -9 -2 -5 -4 4 -13 3 -20 -2 -8 -7 -12 -5 -12 5 0
8 5 11 10 8 6 -4 8 0 4 9 -4 12 -1 14 16 10 12 -3 16 -7 9 -10z m472 10 c3 -5
-1 -9 -9 -9 -8 0 -12 4 -9 9 3 4 7 8 9 8 2 0 6 -4 9 -8z m83 -7 c0 -7 -8 -17
-17 -23 -12 -7 -17 -7 -17 4 0 7 5 10 10 7 6 -4 8 0 5 9 -4 8 -1 15 6 15 7 0
13 -6 13 -12z m248 6 c-9 -8 -36 -10 -30 -2 2 4 11 8 20 8 8 0 13 -3 10 -6z
m315 5 c0 -2 -7 -7 -16 -10 -8 -3 -12 -2 -9 4 6 10 25 14 25 6z m220 0 c0 -3
-4 -8 -10 -11 -5 -3 -10 -1 -10 4 0 6 5 11 10 11 6 0 10 -2 10 -4z m-2243 -19
c0 -8 -13 -13 -33 -13 -18 0 -31 4 -28 8 2 4 13 5 24 3 11 -2 22 0 25 6 8 12
12 11 12 -4z m376 0 c4 3 7 2 7 -4 0 -6 -8 -13 -18 -15 -12 -4 -18 1 -18 13 0
12 4 15 12 9 6 -6 14 -7 17 -3z m1223 -6 c-6 -10 -43 -7 -55 4 -3 4 7 4 22 1
16 -3 27 0 27 6 0 6 3 9 6 5 3 -3 3 -10 0 -16z m321 6 c0 -8 -6 -14 -14 -14
-9 0 -10 4 -2 14 6 7 12 13 14 13 1 0 2 -6 2 -13z m-1257 -7 c0 -5 -4 -10 -10
-10 -5 0 -10 5 -10 10 0 6 5 10 10 10 6 0 10 -4 10 -10z m417 -4 c0 -8 -8 -11
-21 -8 -19 5 -19 6 0 13 10 4 19 8 20 8 0 1 1 -5 1 -13z m30 -8 c-3 -8 -6 -5
-6 6 -1 11 2 17 5 13 3 -3 4 -12 1 -19z m252 6 c3 -4 -1 -4 -9 -2 -8 3 -23 1
-32 -4 -13 -6 -16 -5 -12 6 5 14 40 14 53 0z m134 -9 c-7 -21 -12 -19 -10 4 0
11 5 18 9 15 4 -3 5 -11 1 -19z m171 17 c3 -5 -1 -9 -9 -9 -8 0 -12 4 -9 9 3
4 7 8 9 8 2 0 6 -4 9 -8z m53 -6 c0 -8 -8 -11 -21 -8 -19 5 -19 6 0 13 10 4
19 8 20 8 0 1 1 -5 1 -13z m86 -1 c-3 -9 -8 -14 -10 -11 -3 3 -2 9 2 15 9 16
15 13 8 -4z m234 -2 c0 -9 -4 -10 -14 -2 -7 6 -13 12 -13 14 0 1 6 2 13 2 8 0
14 -6 14 -14z m114 0 c13 -16 12 -17 -3 -4 -10 7 -18 15 -18 17 0 8 8 3 21
-13z m63 9 c3 -5 -1 -9 -9 -9 -8 0 -12 4 -9 9 3 4 7 8 9 8 2 0 6 -4 9 -8z
m-1078 -28 c1 -9 0 -13 -4 -10 -3 4 -7 14 -8 22 -1 9 0 13 4 10 3 -4 7 -14 8
-22z m-1076 12 c0 -2 -7 -7 -16 -10 -8 -3 -12 -2 -9 4 6 10 25 14 25 6z m33
-9 c-4 -6 0 -8 10 -4 11 4 14 2 10 -9 -7 -18 -7 -18 -26 4 -14 15 -15 19 -2
19 8 0 11 -5 8 -10z m201 1 c-5 -8 -2 -9 11 -4 15 5 16 4 5 -9 -10 -12 -15
-13 -21 -3 -7 12 -3 28 7 28 3 0 2 -5 -2 -12z m323 6 c-3 -3 -12 -4 -19 -1 -8
3 -5 6 6 6 11 1 17 -2 13 -5z m90 0 c-3 -3 -12 -4 -19 -1 -8 3 -5 6 6 6 11 1
17 -2 13 -5z m228 -3 c-3 -5 -1 -12 5 -16 5 -3 10 -1 10 6 0 7 3 10 6 6 3 -3
3 -11 -1 -17 -5 -8 -11 -8 -21 1 -12 10 -11 29 2 29 3 0 3 -4 -1 -9z m318 -4
c-4 -7 1 -8 13 -3 15 6 17 5 6 -5 -10 -11 -15 -10 -28 2 -13 14 -13 16 0 16 8
0 12 -5 9 -10z m291 1 c-3 -4 -13 -12 -23 -17 -13 -7 -18 -6 -18 4 0 7 7 11
15 7 9 -3 13 -1 9 5 -3 5 0 10 8 10 8 0 12 -4 9 -9z m369 -6 c4 9 6 9 6 1 2
-22 -16 -23 -35 0 l-19 22 21 -18 c17 -14 23 -15 27 -5z m67 14 c0 -2 -7 -7
-16 -10 -8 -3 -12 -2 -9 4 6 10 25 14 25 6z m52 -21 c3 3 11 -3 19 -12 13 -16
12 -17 -3 -5 -9 7 -18 9 -20 3 -1 -5 -12 3 -22 17 -20 27 -20 27 0 9 12 -9 23
-15 26 -12z m73 16 c-9 -8 -36 -10 -30 -2 2 4 11 8 20 8 8 0 13 -3 10 -6z
m-1908 -23 c-3 -8 -6 -5 -6 6 -1 11 2 17 5 13 3 -3 4 -12 1 -19z m320 7 c0 -8
-5 -11 -10 -8 -7 4 -8 -1 -3 -13 6 -15 5 -16 -5 -7 -10 10 -9 15 1 28 15 19
17 19 17 0z m298 3 c4 4 2 -3 -4 -15 -14 -27 -23 -31 -14 -6 4 10 2 14 -4 10
-5 -3 -10 0 -10 8 0 10 4 12 12 5 7 -5 15 -6 20 -2z m342 -10 c-3 -8 -6 -5 -6
6 -1 11 2 17 5 13 3 -3 4 -12 1 -19z m995 7 c3 3 11 -3 19 -12 12 -16 12 -17
-2 -6 -9 7 -18 11 -21 8 -3 -3 -11 3 -19 12 -12 16 -12 17 2 6 9 -7 18 -11 21
-8z m46 -10 c-3 -3 -9 2 -12 12 -6 14 -5 15 5 6 7 -7 10 -15 7 -18z m138 10
c-1 -8 -8 -21 -16 -28 -10 -10 -11 -9 -4 3 5 8 9 18 10 23 3 14 4 17 8 17 2 0
3 -7 2 -15z m-2263 -9 c4 -10 1 -13 -8 -9 -8 3 -12 9 -9 14 7 12 11 11 17 -5z
m64 -1 c0 -8 -4 -12 -9 -9 -5 3 -6 10 -3 15 9 13 12 11 12 -6z m319 -2 c-1 -7
-6 -16 -10 -20 -4 -4 -7 -3 -6 2 4 20 -1 30 -9 17 -7 -11 -9 -11 -14 0 -3 9 3
14 18 14 13 0 22 -6 21 -13z m162 -3 c7 -12 7 -17 -4 -17 -7 0 -10 5 -7 10 4
6 0 8 -9 5 -8 -4 -15 -1 -15 6 0 18 23 15 35 -4z m73 -3 c-10 -9 -11 -8 -5 6
3 10 9 15 12 12 3 -3 0 -11 -7 -18z m26 1 c-3 -8 -6 -5 -6 6 -1 11 2 17 5 13
3 -3 4 -12 1 -19z m287 10 c-3 -5 -10 -5 -16 -2 -7 5 -9 2 -6 -7 4 -10 -1 -15
-13 -15 -16 0 -17 2 -4 16 15 17 48 24 39 8z m80 4 c3 -5 -1 -9 -9 -9 -8 0
-12 4 -9 9 3 4 7 8 9 8 2 0 6 -4 9 -8z m141 -2 c-3 -5 -12 -10 -18 -10 -7 0
-6 4 3 10 19 12 23 12 15 0z m75 -5 c-10 -12 -10 -15 0 -15 8 0 11 -3 7 -6 -3
-3 -11 -3 -17 1 -8 5 -8 11 1 21 6 8 14 14 16 14 3 0 0 -7 -7 -15z m117 -2 c0
-9 -4 -10 -13 -2 -8 7 -13 6 -16 -3 -3 -8 -6 -8 -10 3 -4 11 1 15 16 15 13 0
23 -6 23 -13z m134 -6 c-10 -9 -11 -8 -5 6 3 10 9 15 12 12 3 -3 0 -11 -7 -18z
m224 14 c-9 -8 -36 -10 -30 -2 2 4 11 8 20 8 8 0 13 -3 10 -6z m-1518 -33 c4
-28 -6 -18 -12 12 -2 12 -1 20 2 16 4 -4 8 -16 10 -28z m1236 19 c3 -8 -1 -14
-8 -14 -7 0 -11 6 -8 14 3 7 6 13 8 13 2 0 5 -6 8 -13z m90 0 c3 -8 -1 -14 -8
-14 -7 0 -11 6 -8 14 3 7 6 13 8 13 2 0 5 -6 8 -13z m360 0 c3 -7 -3 -13 -14
-13 -13 0 -15 3 -7 13 6 7 12 13 13 13 2 0 5 -6 8 -13z m287 -1 c0 -2 -8 -10
-17 -17 -16 -13 -17 -12 -4 4 13 16 21 21 21 13z m-1836 -19 c-3 -8 -11 -14
-19 -14 -21 0 -19 15 3 20 9 3 18 5 19 6 1 0 0 -5 -3 -12z m184 -12 c-3 -3 -9
2 -12 12 -6 14 -5 15 5 6 7 -7 10 -15 7 -18z m296 12 c-3 -8 -11 -14 -19 -14
-21 0 -19 15 3 20 9 3 18 5 19 6 1 0 0 -5 -3 -12z m224 -1 c19 3 23 2 13 -5
-18 -12 -44 -7 -47 8 -1 6 0 7 2 2 3 -5 17 -7 32 -5z m98 -5 c0 -12 -6 -17
-18 -13 -10 2 -18 9 -18 14 0 5 4 7 9 3 5 -3 12 -1 16 5 9 14 11 13 11 -9z
m57 6 c4 3 7 2 7 -4 0 -6 -8 -13 -18 -15 -12 -4 -18 1 -18 13 0 12 4 15 12 9
6 -6 14 -7 17 -3z m583 -6 c-6 -10 -43 -7 -55 4 -3 4 7 4 22 1 16 -3 27 0 27
6 0 6 3 9 6 5 3 -3 3 -10 0 -16z m334 4 c0 -2 -6 -5 -13 -8 -8 -3 -14 1 -14 8
0 7 6 11 14 8 7 -3 13 -6 13 -8z m130 12 c0 -2 -8 -11 -18 -20 -15 -14 -19
-15 -19 -2 0 8 4 12 8 9 4 -2 10 0 14 6 6 10 15 14 15 7z m-1744 -26 c1 -6 0
-7 -2 -2 -3 5 -17 7 -32 5 -19 -3 -23 -2 -13 5 18 12 44 7 47 -8z m228 11 c3
-5 -1 -9 -9 -9 -8 0 -12 4 -9 9 3 4 7 8 9 8 2 0 6 -4 9 -8z m175 -7 c3 -4 -7
-4 -22 -1 -16 3 -27 0 -27 -6 0 -6 -3 -9 -6 -5 -3 3 -3 10 0 16 6 10 43 7 55
-4z m581 5 c0 -5 -4 -10 -10 -10 -5 0 -10 5 -10 10 0 6 5 10 10 10 6 0 10 -4
10 -10z m379 -5 c3 -4 -7 -4 -22 -1 -16 3 -27 0 -27 -6 0 -6 -3 -9 -6 -5 -3 3
-3 10 0 16 6 10 43 7 55 -4z m55 7 c3 -5 -1 -9 -9 -9 -8 0 -12 4 -9 9 3 4 7 8
9 8 2 0 6 -4 9 -8z m481 -10 c-3 -3 -11 0 -18 7 -9 10 -8 11 6 5 10 -3 15 -9
12 -12z m40 -1 c3 -5 2 -12 -3 -15 -5 -3 -9 1 -9 9 0 17 3 19 12 6z m-2195 -5
c0 -2 -7 -7 -16 -10 -8 -3 -12 -2 -9 4 6 10 25 14 25 6z m120 -5 c0 -6 -4 -12
-8 -15 -5 -3 -9 1 -9 9 0 8 4 15 9 15 4 0 8 -4 8 -9z m247 3 c-3 -3 -12 -4
-19 -1 -8 3 -5 6 6 6 11 1 17 -2 13 -5z m672 -1 c-3 -19 2 -27 10 -15 7 11 9
11 14 0 3 -9 -3 -14 -18 -14 -20 0 -24 8 -16 34 2 6 11 1 10 -5z m118 1 c-3
-3 -12 -4 -19 -1 -8 3 -5 6 6 6 11 1 17 -2 13 -5z m35 -16 c-2 -10 -6 -18 -7
-18 -1 0 -5 8 -7 18 -3 11 0 19 7 19 7 0 10 -8 7 -19z m130 4 c-3 -10 -1 -13
6 -8 7 4 12 5 12 2 0 -15 -20 -14 -29 2 -7 14 -6 19 4 19 7 0 11 -7 7 -15z
m114 -5 c1 -7 -8 -13 -21 -13 -15 0 -21 5 -18 14 5 11 7 11 14 0 8 -13 13 -3
9 17 -1 6 2 6 6 2 4 -4 9 -13 10 -20z m353 2 c-12 -24 -26 -31 -26 -14 0 8 5
11 10 8 6 -4 8 0 5 9 -4 8 0 15 7 15 10 0 11 -5 4 -18z m101 17 c0 -2 -9 -6
-20 -9 -11 -3 -18 -1 -14 4 5 9 34 13 34 5z m-199 -15 c0 10 2 11 6 1 2 -6 10
-9 16 -5 7 3 8 2 4 -3 -13 -14 -54 -12 -54 2 0 10 4 11 14 3 10 -9 13 -8 14 2z
m-1501 -7 c0 -8 -19 -13 -24 -6 -3 5 1 9 9 9 8 0 15 -2 15 -3z m127 -16 c1
-10 -3 -18 -9 -18 -6 0 -8 3 -5 7 4 3 2 11 -3 18 -7 8 -6 12 3 12 7 0 14 -9
14 -19z m57 10 c-3 -4 -11 -5 -19 -1 -21 7 -19 12 4 10 11 0 18 -5 15 -9z m96
6 c0 -8 -19 -13 -24 -6 -3 5 1 9 9 9 8 0 15 -2 15 -3z m67 -8 c0 -8 -6 -12
-15 -8 -10 3 -13 1 -8 -6 3 -6 -2 -15 -12 -21 -14 -7 -19 -6 -19 4 0 7 7 11
15 7 10 -3 13 -1 8 6 -5 8 10 25 30 32 0 0 1 -6 1 -14z m203 8 c0 -8 -19 -13
-24 -6 -3 5 1 9 9 9 8 0 15 -2 15 -3z m100 -9 c0 -1 -8 -5 -18 -7 -11 -3 -19
0 -19 7 0 7 8 10 19 7 10 -2 18 -6 18 -7z m310 9 c0 -8 -19 -13 -24 -6 -3 5 1
9 9 9 8 0 15 -2 15 -3z m80 -9 c0 -2 -6 -5 -13 -8 -8 -3 -14 1 -14 8 0 7 6 11
14 8 7 -3 13 -6 13 -8z m27 0 c0 -8 -4 -12 -9 -9 -5 3 -6 10 -3 15 9 13 12 11
12 -6z m240 1 c0 -8 -6 -12 -15 -8 -11 4 -13 1 -7 -8 6 -9 4 -11 -5 -5 -10 6
-9 11 5 22 23 16 22 16 22 -1z m93 8 c0 -8 -19 -13 -24 -6 -3 5 1 9 9 9 8 0
15 -2 15 -3z m260 -4 c8 -5 11 -10 5 -10 -5 0 -17 5 -25 10 -8 5 -10 10 -5 10
6 0 17 -5 25 -10z m125 1 c3 -5 2 -12 -3 -15 -5 -3 -9 1 -9 9 0 17 3 19 12 6z
m230 -1 c-3 -5 -12 -10 -18 -10 -7 0 -6 4 3 10 19 12 23 12 15 0z m-202 -13
c3 -8 -1 -14 -8 -14 -7 0 -11 6 -8 14 3 7 6 13 8 13 2 0 5 -6 8 -13z m-1878
-6 c-3 -2 -16 -6 -28 -8 -15 -2 -18 0 -9 5 14 9 45 12 37 3z m271 -15 c-2 -14
0 -27 5 -30 5 -2 4 -3 -3 -2 -14 3 -20 56 -6 56 4 0 6 -11 4 -24z m400 -14
c-2 -9 -8 -17 -15 -18 -6 -1 -7 0 -2 2 5 3 7 17 5 32 -3 19 -2 23 5 13 5 -7 8
-21 7 -29z m480 14 c-2 -14 0 -27 5 -30 5 -2 4 -3 -3 -2 -12 2 -13 12 -9 46 0
6 3 10 6 10 3 0 3 -11 1 -24z m81 12 c-2 -7 0 -21 5 -30 6 -13 5 -16 -5 -12
-14 5 -18 54 -4 54 5 0 7 -6 4 -12z m398 -16 c2 -12 -3 -23 -11 -26 -11 -4
-12 -1 -6 12 5 9 7 24 4 32 -2 8 -2 12 2 9 4 -4 8 -16 11 -27z m45 18 c-14 -9
-7 -14 13 -11 5 1 6 -3 2 -9 -5 -8 -11 -8 -21 1 -15 12 -10 29 9 29 7 0 6 -4
-3 -10z m281 -5 c-5 -5 -7 -18 -6 -27 2 -10 -1 -18 -7 -18 -5 0 -8 6 -5 13 2
6 1 19 -4 27 -5 11 -2 16 11 16 12 0 16 -4 11 -11z m84 5 c3 -6 -1 -7 -9 -4
-18 7 -21 14 -7 14 6 0 13 -4 16 -10z m-1957 -20 c-7 -10 -14 -17 -17 -15 -4
4 18 35 25 35 2 0 -1 -9 -8 -20z m74 6 c10 6 11 5 1 -8 -7 -8 -11 -17 -8 -20
3 -2 -2 -5 -10 -5 -8 0 -12 4 -9 9 3 5 0 17 -8 26 -12 15 -11 16 4 4 10 -8 23
-10 30 -6z m175 0 c0 -8 -6 -12 -15 -8 -10 3 -13 1 -8 -6 3 -6 2 -13 -3 -16
-5 -4 -8 1 -7 10 2 12 21 32 32 34 0 0 1 -6 1 -14z m160 0 c0 -9 -6 -12 -16
-8 -13 5 -14 3 -4 -9 10 -12 8 -15 -10 -16 -17 -2 -19 0 -7 7 8 5 11 10 5 10
-5 0 -1 7 9 15 24 18 23 18 23 1z m80 0 c0 -8 -8 -11 -21 -8 -19 5 -19 6 0 13
10 4 19 8 20 8 0 1 1 -5 1 -13z m59 -20 c1 -9 -2 -14 -7 -10 -5 3 -6 10 -3 16
5 7 2 9 -8 6 -8 -4 -15 0 -15 8 0 19 30 1 33 -20z m163 18 c5 4 13 1 17 -5 5
-8 3 -9 -6 -4 -9 6 -12 4 -8 -6 4 -10 -1 -15 -12 -15 -11 0 -16 5 -12 15 3 8
1 12 -5 8 -5 -3 -10 0 -10 8 0 11 4 12 13 4 7 -6 18 -8 23 -5z m98 1 c0 -8 -5
-11 -10 -8 -6 4 -8 0 -4 -10 9 -24 0 -21 -14 4 -7 13 -7 19 -1 15 6 -3 13 -2
17 4 9 14 12 13 12 -5z m178 6 c3 -5 2 -12 -3 -15 -5 -3 -9 1 -9 9 0 17 3 19
12 6z m266 -33 c-10 -11 -11 -9 -5 6 5 12 4 17 -3 13 -5 -3 -10 1 -10 9 0 13
2 13 16 0 12 -13 13 -18 2 -28z m116 28 c0 -9 -6 -12 -16 -8 -13 5 -14 3 -4
-9 10 -13 10 -16 -1 -16 -23 0 -5 42 20 47 0 0 1 -6 1 -14z m70 5 c6 6 10 5
10 -5 0 -8 -5 -12 -10 -9 -6 4 -8 0 -4 -10 4 -11 2 -14 -8 -10 -8 3 -12 10 -8
16 4 6 0 8 -9 5 -8 -4 -15 0 -15 7 0 10 5 11 17 5 10 -6 21 -5 27 1z m289 -10
c0 -14 -4 -17 -12 -11 -6 6 -14 7 -17 3 -4 -3 -7 -1 -7 5 0 6 8 13 18 15 9 3
17 5 17 6 1 0 1 -8 1 -18z m-1765 -8 c13 -17 13 -17 -6 -3 -11 8 -22 16 -24
17 -2 2 0 3 6 3 6 0 17 -8 24 -17z m946 10 c-4 -3 -3 -11 3 -17 6 -8 3 -12 -9
-12 -12 0 -17 6 -13 18 2 10 9 18 15 18 6 0 7 -3 4 -7z m-877 -12 c0 -5 -7
-12 -16 -15 -14 -5 -15 -4 -4 9 14 17 20 19 20 6z m78 -4 c8 -10 6 -13 -7 -13
-11 0 -17 6 -14 13 3 7 6 13 8 13 1 0 7 -6 13 -13z m1878 -5 c-3 -3 0 -12 6
-21 10 -13 10 -14 -2 -4 -16 15 -23 46 -8 37 5 -3 7 -9 4 -12z m-1511 -2 c3
-6 -1 -7 -9 -4 -18 7 -21 14 -7 14 6 0 13 -4 16 -10z m1188 -15 c-7 -21 -12
-19 -10 4 0 11 5 18 9 15 4 -3 5 -11 1 -19z m284 19 c-3 -3 -12 -4 -19 -1 -8
3 -5 6 6 6 11 1 17 -2 13 -5z m137 -2 c2 -4 -5 -9 -17 -9 -17 -2 -19 0 -7 7
18 12 18 12 24 2z m-1254 -23 c0 -5 -4 -9 -8 -9 -5 0 -9 7 -9 15 0 8 4 12 9 9
4 -3 8 -9 8 -15z m113 6 c-3 -9 -8 -14 -10 -11 -3 3 -2 9 2 15 9 16 15 13 8
-4z m163 -11 c1 -9 0 -13 -4 -10 -3 4 -7 14 -8 22 -1 9 0 13 4 10 3 -4 7 -14
8 -22z m480 6 c0 -12 -4 -16 -9 -11 -5 5 -6 14 -3 20 10 15 12 14 12 -9z m51
-2 c-3 -8 -6 -5 -6 6 -1 11 2 17 5 13 3 -3 4 -12 1 -19z m110 9 c0 -8 -6 -14
-14 -14 -9 0 -10 4 -2 14 6 7 12 13 14 13 1 0 2 -6 2 -13z m-1317 -6 c0 -6 -4
-12 -8 -15 -5 -3 -9 1 -9 9 0 8 4 15 9 15 4 0 8 -4 8 -9z m80 0 c0 -6 -4 -12
-8 -15 -5 -3 -9 1 -9 9 0 8 4 15 9 15 4 0 8 -4 8 -9z m114 -7 c3 -8 2 -12 -4
-9 -6 3 -10 10 -10 16 0 14 7 11 14 -7z m403 10 c-3 -3 -11 -6 -19 -8 -7 -1
-20 -6 -28 -11 -12 -7 -13 -6 -3 6 6 8 22 15 34 16 11 1 19 0 16 -3z m200 0
c-2 -3 -17 -7 -33 -10 -17 -2 -24 -1 -17 4 13 8 58 14 50 6z m63 -6 c0 -4 -4
-8 -9 -8 -6 0 -12 4 -15 8 -3 5 1 9 9 9 8 0 15 -4 15 -9z m100 2 c0 -5 -4 -10
-10 -10 -5 0 -10 5 -10 10 0 6 5 10 10 10 6 0 10 -4 10 -10z m80 0 c0 -5 -4
-10 -10 -10 -5 0 -10 5 -10 10 0 6 5 10 10 10 6 0 10 -4 10 -10z m380 -15 c0
-2 -7 -1 -17 2 -12 5 -14 3 -8 -8 5 -8 4 -11 0 -6 -5 4 -10 14 -11 22 -2 12 2
12 17 5 10 -6 19 -13 19 -15z m92 7 c3 -11 0 -19 -7 -19 -7 0 -10 8 -7 19 2
10 6 18 7 18 1 0 5 -8 7 -18z m22 2 c3 -8 2 -12 -4 -9 -6 3 -10 10 -10 16 0
14 7 11 14 -7z m-1764 -9 c0 -2 -6 -8 -13 -14 -10 -8 -14 -7 -14 2 0 8 6 14
14 14 7 0 13 -1 13 -2z m73 -12 c-4 -10 -9 -11 -19 -2 -18 15 -18 15 5 15 11
0 17 -5 14 -13z m72 -17 c1 -14 -1 -29 -5 -31 -4 -2 -6 8 -5 23 1 15 -3 31 -9
35 -7 6 -6 7 4 5 8 -3 15 -17 15 -32z m48 17 c-4 -10 -2 -14 4 -10 5 3 10 -1
10 -9 0 -13 -2 -13 -15 0 -8 8 -11 19 -8 25 11 17 16 13 9 -6z m80 0 c-4 -10
-2 -14 4 -10 5 3 10 0 10 -8 0 -10 -4 -12 -12 -5 -7 5 -15 6 -20 2 -4 -4 -2 3
4 16 14 26 23 30 14 5z m117 1 c-6 -6 -7 -14 -3 -17 3 -4 2 -7 -4 -7 -6 0 -13
8 -15 18 -4 12 1 18 13 18 12 0 15 -4 9 -12z m76 -19 c0 -14 -4 -25 -9 -25 -5
0 -7 6 -4 13 2 6 0 20 -5 29 -6 13 -5 16 5 12 7 -2 13 -16 13 -29z m120 12 c1
-9 -2 -15 -7 -11 -5 3 -7 9 -4 14 3 4 0 11 -5 13 -6 3 -5 4 1 3 7 -1 13 -10
15 -19z m86 16 c-6 -3 -10 -9 -7 -13 3 -5 -3 -13 -13 -19 -14 -7 -19 -6 -19 4
0 8 7 11 16 7 13 -5 14 -3 4 9 -10 12 -8 15 10 16 12 0 16 -1 9 -4z m81 -10
c-4 -10 -2 -14 4 -10 5 3 10 -1 10 -9 0 -13 -2 -13 -15 0 -8 8 -11 19 -8 25
11 17 16 13 9 -6z m117 1 c-6 -6 -7 -14 -3 -17 3 -4 2 -7 -4 -7 -6 0 -13 8
-15 18 -4 12 1 18 13 18 12 0 15 -4 9 -12z m76 -19 c0 -14 -4 -25 -9 -25 -5 0
-7 6 -4 13 2 6 0 20 -5 29 -6 13 -5 16 5 12 7 -2 13 -16 13 -29z m206 16 c-3
-8 -1 -12 5 -8 5 3 10 0 10 -8 0 -11 -4 -12 -13 -4 -7 6 -18 8 -23 5 -5 -4
-13 -2 -16 4 -4 6 -3 10 2 9 20 -3 27 2 13 11 -12 7 -10 9 7 8 14 -2 19 -7 15
-17z m194 -3 c1 -8 -2 -22 -7 -29 -7 -10 -8 -6 -5 13 2 15 0 29 -5 32 -5 2 -4
3 2 2 7 -1 13 -9 15 -18z m524 18 c0 -2 -7 -7 -16 -10 -8 -3 -12 -2 -9 4 6 10
25 14 25 6z m-463 -21 c0 -8 -5 -11 -10 -8 -6 4 -8 0 -4 -10 4 -11 2 -14 -9
-10 -13 5 -13 8 2 24 21 23 21 23 21 4z m119 -4 c0 -14 -4 -17 -12 -11 -6 6
-14 7 -17 3 -4 -3 -7 -1 -7 5 0 6 8 13 18 15 9 3 17 5 17 6 1 0 1 -8 1 -18z
m285 5 c14 8 11 -2 -4 -14 -10 -8 -13 -6 -14 11 0 12 1 16 4 9 3 -6 9 -10 14
-6z m-1770 -13 c13 -17 13 -17 -6 -3 -11 8 -22 16 -24 17 -2 2 0 3 6 3 6 0 17
-8 24 -17z m566 -5 c-3 -8 -6 -5 -6 6 -1 11 2 17 5 13 3 -3 4 -12 1 -19z m640
8 c0 -8 -8 -11 -21 -8 -19 5 -19 6 0 13 10 4 19 8 20 8 0 1 1 -5 1 -13z m343
3 c0 -3 -9 -9 -19 -12 -13 -3 -18 0 -15 7 5 13 34 18 34 5z m116 -13 c0 -16
-4 -22 -14 -19 -11 5 -11 7 0 14 7 5 9 9 5 9 -5 0 -5 5 -2 10 9 15 11 12 11
-14z m169 14 c-3 -5 -12 -10 -18 -10 -7 0 -6 4 3 10 19 12 23 12 15 0z m-1691
-18 c3 -5 -1 -9 -9 -9 -8 0 -12 4 -9 9 3 4 7 8 9 8 2 0 6 -4 9 -8z m561 -1 c3
-6 -3 -14 -13 -20 -14 -7 -19 -6 -19 4 0 7 7 11 15 7 10 -3 13 -1 8 6 -4 7 -5
12 -2 12 3 0 7 -4 11 -9z m-514 -24 c-10 -9 -11 -8 -5 6 3 10 9 15 12 12 3 -3
0 -11 -7 -18z m295 8 c-1 -8 -6 -18 -11 -22 -4 -4 -5 -2 -1 5 4 7 2 12 -6 12
-9 0 -9 3 2 10 19 12 19 13 16 -5z m277 -4 c3 -15 1 -18 -11 -14 -11 5 -13 3
-7 -8 5 -8 4 -11 0 -6 -12 10 -15 38 -4 31 5 -3 9 0 9 5 0 18 7 13 13 -8z
m203 4 c-1 -8 -6 -18 -11 -22 -4 -4 -5 -2 -1 5 4 7 2 12 -6 12 -9 0 -9 3 2 10
19 12 19 13 16 -5z m81 -7 c-3 -8 -6 -5 -6 6 -1 11 2 17 5 13 3 -3 4 -12 1
-19z m292 -7 c7 -13 6 -18 -4 -18 -7 0 -11 7 -7 15 3 9 1 13 -5 9 -5 -3 -10 0
-10 8 0 17 14 10 26 -14z m51 8 c0 -5 -4 -9 -8 -9 -5 0 -9 7 -9 15 0 8 4 12 9
9 4 -3 8 -9 8 -15z m358 -4 c-3 -3 -9 2 -12 12 -6 14 -5 15 5 6 7 -7 10 -15 7
-18z m-1488 11 c0 -2 -8 -10 -17 -17 -16 -13 -17 -12 -4 4 13 16 21 21 21 13z
m45 -26 c2 -12 1 -20 -2 -16 -4 4 -8 16 -10 28 -4 28 6 18 12 -12z m80 12 c-3
-3 -11 0 -18 7 -9 10 -8 11 6 5 10 -3 15 -9 12 -12z m127 0 c3 -11 0 -19 -7
-19 -7 0 -10 8 -7 19 2 10 6 18 7 18 1 0 5 -8 7 -18z m92 10 c3 -5 -1 -9 -9
-9 -8 0 -12 4 -9 9 3 4 7 8 9 8 2 0 6 -4 9 -8z m266 -7 c0 -2 -9 -3 -19 -2
-11 0 -18 5 -15 9 4 6 34 0 34 -7z m122 -3 c3 -11 0 -19 -7 -19 -7 0 -10 8 -7
19 2 10 6 18 7 18 1 0 5 -8 7 -18z m254 -1 c1 -6 0 -7 -3 -1 -2 5 -9 8 -13 5
-5 -3 -11 -1 -14 4 -4 5 2 8 11 7 9 -2 18 -8 19 -15z m187 -5 c6 -15 -17 -16
-30 -1 -4 4 -2 5 5 1 6 -4 12 -2 12 3 0 15 7 14 13 -3z m155 -7 c-13 -8 -3
-13 17 -9 6 1 6 -2 2 -6 -16 -16 -33 -11 -33 11 0 15 5 21 14 18 11 -5 11 -7
0 -14z m-1243 -7 c-3 -3 -11 0 -18 7 -9 10 -8 11 6 5 10 -3 15 -9 12 -12z
m1162 -4 c2 -18 0 -20 -7 -8 -12 18 -13 30 -2 30 4 0 9 -10 9 -22z m320 8 c-1
-6 4 -10 11 -8 14 2 16 -4 3 -12 -4 -3 -16 3 -25 13 -13 14 -14 18 -2 18 8 0
14 -5 13 -11z m-1440 -2 c-3 -3 -12 -4 -19 -1 -8 3 -5 6 6 6 11 1 17 -2 13 -5z
m40 0 c-3 -3 -12 -4 -19 -1 -8 3 -5 6 6 6 11 1 17 -2 13 -5z m179 -13 c-6 -10
-43 -7 -55 4 -3 4 7 4 22 1 16 -3 27 0 27 6 0 6 3 9 6 5 3 -3 3 -10 0 -16z
m261 13 c-3 -3 -12 -4 -19 -1 -8 3 -5 6 6 6 11 1 17 -2 13 -5z m219 -13 c0
-12 -6 -17 -18 -13 -10 2 -18 9 -18 14 0 5 4 7 9 3 5 -3 12 -1 16 5 9 14 11
13 11 -9z m72 6 c6 3 12 1 12 -4 0 -14 -49 -10 -54 4 -4 10 -1 11 12 5 9 -5
23 -7 30 -5z m-688 -7 c0 -5 -4 -10 -10 -10 -5 0 -10 5 -10 10 0 6 5 10 10 10
6 0 10 -4 10 -10z m219 -6 c3 -4 -1 -4 -9 -2 -8 3 -23 1 -32 -4 -13 -6 -16 -5
-12 6 5 14 40 14 53 0z m261 6 c0 -5 -4 -10 -10 -10 -5 0 -10 5 -10 10 0 6 5
10 10 10 6 0 10 -4 10 -10z m364 2 c3 -5 -1 -9 -9 -9 -8 0 -12 4 -9 9 3 4 7 8
9 8 2 0 6 -4 9 -8z m116 -7 c0 -1 -8 -5 -18 -7 -11 -3 -19 0 -19 7 0 7 8 10
19 7 10 -2 18 -6 18 -7z m277 8 c-4 -3 -3 -11 3 -17 6 -8 3 -12 -9 -12 -12 0
-17 6 -13 18 2 10 9 18 15 18 6 0 7 -3 4 -7z m94 -10 c13 -16 12 -17 -3 -4
-10 7 -18 15 -18 17 0 8 8 3 21 -13z m-1370 -10 c13 -16 12 -17 -3 -4 -10 7
-18 15 -18 17 0 8 8 3 21 -13z m79 3 c0 -2 -7 -7 -16 -10 -8 -3 -12 -2 -9 4 6
10 25 14 25 6z m39 -12 c-5 -6 -7 -19 -3 -28 4 -10 1 -16 -7 -16 -7 0 -10 3
-6 6 3 3 2 16 -3 28 -6 17 -4 22 11 22 12 0 15 -4 8 -12z m354 3 c-4 -6 0 -8
10 -4 11 4 14 2 10 -9 -7 -18 -7 -18 -26 4 -14 15 -15 19 -2 19 8 0 11 -5 8
-10z m94 7 c-3 -3 -12 -4 -19 -1 -8 3 -5 6 6 6 11 1 17 -2 13 -5z m196 -11
c-4 -10 -2 -14 5 -9 6 3 13 2 16 -3 7 -11 -13 -9 -33 3 -11 7 -11 10 0 17 19
12 19 11 12 -8z m355 -2 c-7 -9 -13 -17 -14 -19 -1 -1 -7 4 -14 13 -11 13 -10
14 5 9 11 -5 16 -4 12 3 -3 5 0 10 8 10 12 0 12 -3 3 -16z m117 10 c3 -5 2
-12 -3 -15 -5 -3 -9 1 -9 9 0 17 3 19 12 6z m-1019 -30 c2 -7 0 -7 -3 -1 -3 7
-9 8 -17 1 -9 -8 -13 -7 -13 3 0 17 30 14 33 -3z m68 11 c3 -5 -1 -9 -9 -9 -8
0 -12 4 -9 9 3 4 7 8 9 8 2 0 6 -4 9 -8z m253 -7 c0 -8 -4 -12 -9 -9 -5 3 -6
10 -3 15 9 13 12 11 12 -6z m148 5 c3 -6 -1 -7 -9 -4 -18 7 -21 14 -7 14 6 0
13 -4 16 -10z m48 -4 c4 -11 1 -13 -10 -9 -12 5 -14 3 -8 -7 5 -9 4 -11 -4 -6
-9 6 -9 11 0 22 14 17 16 17 22 0z m137 8 c0 -8 -19 -13 -24 -6 -3 5 1 9 9 9
8 0 15 -2 15 -3z m523 -14 c10 -10 9 -11 -3 -4 -8 5 -21 9 -28 10 -8 2 -17 5
-20 8 -3 4 4 5 16 3 12 -2 28 -9 35 -17z m-880 -3 c3 -8 -1 -14 -8 -14 -7 0
-11 6 -8 14 3 7 6 13 8 13 2 0 5 -6 8 -13z m562 3 c-3 -5 -1 -10 6 -10 7 0 10
-3 6 -6 -9 -9 -28 6 -22 17 4 5 8 9 11 9 3 0 2 -4 -1 -10z m78 -5 c-3 -9 -8
-14 -10 -11 -3 3 -2 9 2 15 9 16 15 13 8 -4z m-1002 -12 c13 -16 12 -17 -3 -4
-10 7 -18 15 -18 17 0 8 8 3 21 -13z m405 -7 c-2 -14 0 -27 5 -30 5 -2 4 -3
-3 -2 -12 2 -13 12 -9 46 0 6 3 10 6 10 3 0 3 -11 1 -24z m724 8 c-6 -6 -7
-14 -3 -17 3 -4 2 -7 -4 -7 -6 0 -13 8 -15 18 -4 12 1 18 13 18 12 0 15 -4 9
-12z m45 6 c-4 -6 -1 -19 6 -28 12 -16 12 -16 -5 0 -16 14 -15 38 0 38 3 0 2
-5 -1 -10z m-1078 -22 c-3 -8 -6 -5 -6 6 -1 11 2 17 5 13 3 -3 4 -12 1 -19z
m80 0 c-3 -8 -6 -5 -6 6 -1 11 2 17 5 13 3 -3 4 -12 1 -19z m91 10 c-5 -14
-58 -19 -58 -6 0 4 11 6 25 4 14 -3 25 0 25 5 0 5 3 9 6 9 3 0 4 -5 2 -12z
m257 0 c5 4 5 2 2 -5 -4 -6 -2 -13 5 -15 7 -3 3 -7 -9 -10 -17 -4 -20 -2 -16
10 4 9 2 13 -4 9 -5 -3 -10 0 -10 8 0 10 4 12 12 5 7 -5 16 -6 20 -2z m182 -2
c0 -8 -6 -12 -15 -9 -11 5 -11 7 0 14 7 5 13 9 14 9 0 0 1 -6 1 -14z m53 -1
c0 -2 -6 -5 -13 -8 -8 -3 -14 1 -14 8 0 7 6 11 14 8 7 -3 13 -6 13 -8z m66 -4
c-6 -10 -43 -7 -55 4 -3 4 7 4 22 1 16 -3 27 0 27 6 0 6 3 9 6 5 3 -3 3 -10 0
-16z m57 6 c4 3 7 2 7 -4 0 -6 -8 -13 -18 -15 -12 -4 -18 1 -18 13 0 12 4 15
12 9 6 -6 14 -7 17 -3z m160 0 c4 3 7 2 7 -4 0 -6 -8 -13 -18 -15 -12 -4 -18
1 -18 13 0 12 4 15 12 9 6 -6 14 -7 17 -3z m181 -17 c-6 -6 -10 -3 -10 10 0
13 4 16 10 10 7 -7 7 -13 0 -20z m-888 7 c4 -3 -3 -5 -15 -2 -11 2 -21 -1 -21
-7 0 -6 -3 -9 -6 -5 -3 3 -3 10 0 15 7 11 31 10 42 -1z m334 8 c0 -7 -30 -13
-34 -7 -3 4 4 9 15 9 10 1 19 0 19 -2z m-63 -35 c1 -11 -2 -20 -5 -20 -4 0 -8
9 -9 20 -1 11 2 20 5 20 4 0 8 -9 9 -20z m76 3 c-3 -7 -6 -13 -8 -13 -2 0 -5
6 -8 13 -3 8 1 14 8 14 7 0 11 -6 8 -14z m97 11 c0 -8 -19 -13 -24 -6 -3 5 1
9 9 9 8 0 15 -2 15 -3z m186 -9 c-1 -8 -5 -17 -8 -21 -5 -4 -4 16 1 34 3 9 9
-1 7 -13z m-486 -10 c-7 -8 -16 -13 -20 -10 -5 3 -11 1 -15 -5 -3 -5 -11 -10
-18 -10 -6 0 -2 6 8 14 11 8 23 12 27 10 4 -2 9 0 13 6 3 5 9 10 12 10 3 0 0
-7 -7 -15z m502 -17 c-8 -8 -9 -4 -5 13 4 13 8 18 11 10 2 -7 -1 -18 -6 -23z
m-658 6 c3 -8 2 -12 -4 -9 -6 3 -10 10 -10 16 0 14 7 11 14 -7z m406 7 c0 -6
-4 -12 -8 -15 -5 -3 -9 1 -9 9 0 8 4 15 9 15 4 0 8 -4 8 -9z m57 -5 c0 -8 -6
-12 -15 -9 -11 5 -11 7 0 14 7 5 13 9 14 9 0 0 1 -6 1 -14z m233 -1 c11 -13
10 -14 -4 -9 -9 3 -16 10 -16 15 0 13 6 11 20 -6z m91 -18 c-10 -9 -11 -8 -5
6 3 10 9 15 12 12 3 -3 0 -11 -7 -18z m-617 5 c-6 -4 -10 -19 -9 -34 1 -15 -1
-25 -5 -23 -4 2 -6 17 -4 32 3 35 2 33 17 33 8 0 8 -3 1 -8z m198 -10 c-4 -11
-1 -13 9 -7 8 5 11 4 6 0 -14 -16 -36 -14 -30 3 5 11 3 13 -7 7 -8 -5 -11 -4
-7 2 10 16 36 11 29 -5z m-106 -11 c0 -14 -4 -17 -11 -11 -6 5 -21 8 -33 5
-12 -2 -24 0 -27 5 -3 4 3 7 12 6 14 -2 55 7 58 13 1 1 1 -8 1 -18z m281 5 c0
-9 -6 -12 -16 -8 -13 5 -14 3 -4 -9 10 -12 8 -15 -10 -16 -12 0 -16 1 -9 4 10
4 10 8 0 21 -7 9 -8 13 -3 10 6 -4 17 -3 25 3 8 5 15 9 16 9 0 0 1 -6 1 -14z
m80 -1 c0 -8 -5 -11 -10 -8 -6 4 -8 0 -4 -10 9 -24 0 -21 -14 4 -7 13 -7 19
-1 15 6 -3 13 -2 17 4 9 14 12 13 12 -5z m-587 -1 c0 -8 -19 -13 -24 -6 -3 5
1 9 9 9 8 0 15 -2 15 -3z m80 2 c0 -2 -8 -10 -17 -17 -16 -13 -17 -12 -4 4 13
16 21 21 21 13z m216 -9 c4 -3 -3 -5 -15 -2 -11 2 -21 -1 -21 -7 0 -6 -3 -9
-6 -5 -3 3 -3 10 0 15 7 11 31 10 42 -1z m491 -4 c0 -9 -4 -10 -14 -2 -7 6
-13 12 -13 14 0 1 6 2 13 2 8 0 14 -6 14 -14z m-26 -20 c13 -16 12 -17 -3 -4
-10 7 -18 15 -18 17 0 8 8 3 21 -13z m-475 -8 c-1 -8 -5 -17 -8 -21 -5 -4 -4
16 1 34 3 9 9 -1 7 -13z m515 -12 c13 -16 12 -17 -3 -4 -10 7 -18 15 -18 17 0
8 8 3 21 -13z m-381 -9 c0 -8 -19 -13 -24 -6 -3 5 1 9 9 9 8 0 15 -2 15 -3z
m24 -3 c3 -5 -2 -15 -12 -22 -15 -12 -16 -12 -5 2 7 9 10 19 6 22 -3 4 -4 7 0
7 3 0 8 -4 11 -9z m84 -8 c-12 -15 -22 -18 -14 -4 4 5 0 11 -6 14 -7 3 -3 4 9
4 17 -1 19 -4 11 -14z m42 2 c-5 -7 -9 -14 -7 -16 1 -2 0 -3 -2 -2 -2 2 -11
-3 -20 -9 -12 -10 -12 -7 2 8 9 11 15 23 12 26 -3 2 2 5 10 5 10 0 12 -4 5
-12z m50 10 c0 -1 -10 -10 -22 -21 -14 -12 -18 -13 -10 -3 6 9 10 18 7 21 -3
2 2 5 10 5 8 0 15 -1 15 -2z m68 -14 c-7 -9 -13 -18 -15 -20 -1 -2 -1 5 0 16
0 11 7 20 14 20 10 0 10 -4 1 -16z m82 15 c0 -2 -7 -7 -16 -10 -8 -3 -12 -2
-9 4 6 10 25 14 25 6z m-269 -33 c13 -16 12 -17 -3 -4 -10 7 -18 15 -18 17 0
8 8 3 21 -13z m120 -6 c-10 -9 -11 -8 -5 6 3 10 9 15 12 12 3 -3 0 -11 -7 -18z"/>
</g>
</svg>
